<svg xmlns="http://www.w3.org/2000/svg" xmlns:xlink="http://www.w3.org/1999/xlink" width="2000" zoomAndPan="magnify" viewBox="0 0 1500 1499.999933" height="2000" preserveAspectRatio="xMidYMid meet" version="1.0"><defs><clipPath id="fd26925886"><path d="M 169 169 L 983 169 L 983 983 L 169 983 Z M 169 169 " clip-rule="nonzero"/></clipPath><clipPath id="83325909bc"><path d="M 1.066406 575.996094 L 576 1.058594 L 1150.9375 575.996094 L 576 1150.933594 Z M 1.066406 575.996094 " clip-rule="nonzero"/></clipPath><clipPath id="d2e368f8de"><path d="M 288.535156 288.527344 C 129.769531 447.292969 129.769531 704.699219 288.535156 863.464844 C 447.296875 1022.226562 704.707031 1022.226562 863.46875 863.464844 C 1022.234375 704.699219 1022.234375 447.292969 863.46875 288.527344 C 704.707031 129.761719 447.296875 129.761719 288.535156 288.527344 Z M 288.535156 288.527344 " clip-rule="nonzero"/></clipPath><clipPath id="cc0598a0eb"><path d="M 0 0 L 814 0 L 814 814 L 0 814 Z M 0 0 " clip-rule="nonzero"/></clipPath><clipPath id="9e62c92776"><path d="M -167.933594 406.996094 L 407 -167.941406 L 981.9375 406.996094 L 407 981.933594 Z M -167.933594 406.996094 " clip-rule="nonzero"/></clipPath><clipPath id="6ea35bb303"><path d="M 119.535156 119.527344 C -39.230469 278.292969 -39.230469 535.699219 119.535156 694.464844 C 278.296875 853.226562 535.707031 853.226562 694.46875 694.464844 C 853.234375 535.699219 853.234375 278.292969 694.46875 119.527344 C 535.707031 -39.238281 278.296875 -39.238281 119.535156 119.527344 Z M 119.535156 119.527344 " clip-rule="nonzero"/></clipPath><clipPath id="29438713a7"><rect x="0" width="814" y="0" height="814"/></clipPath><clipPath id="01cf11ca93"><path d="M 291 291 L 861 291 L 861 861 L 291 861 Z M 291 291 " clip-rule="nonzero"/></clipPath><clipPath id="e2dd12b53d"><path d="M 174.144531 575.992188 L 576.003906 174.132812 L 977.863281 575.992188 L 576.003906 977.851562 Z M 174.144531 575.992188 " clip-rule="nonzero"/></clipPath><clipPath id="258b85edda"><path d="M 375.074219 375.0625 C 264.101562 486.035156 264.101562 665.953125 375.074219 776.921875 C 486.042969 887.894531 665.960938 887.894531 776.933594 776.921875 C 887.902344 665.953125 887.902344 486.035156 776.933594 375.0625 C 665.960938 264.09375 486.042969 264.09375 375.074219 375.0625 Z M 375.074219 375.0625 " clip-rule="nonzero"/></clipPath><clipPath id="016976b7f3"><path d="M 0 0 L 570 0 L 570 570 L 0 570 Z M 0 0 " clip-rule="nonzero"/></clipPath><clipPath id="2f5545f86b"><path d="M -116.855469 284.992188 L 285.003906 -116.867188 L 686.863281 284.992188 L 285.003906 686.851562 Z M -116.855469 284.992188 " clip-rule="nonzero"/></clipPath><clipPath id="b6e6d936b8"><path d="M 84.074219 84.0625 C -26.898438 195.035156 -26.898438 374.953125 84.074219 485.921875 C 195.042969 596.894531 374.960938 596.894531 485.933594 485.921875 C 596.902344 374.953125 596.902344 195.035156 485.933594 84.0625 C 374.960938 -26.90625 195.042969 -26.90625 84.074219 84.0625 Z M 84.074219 84.0625 " clip-rule="nonzero"/></clipPath><clipPath id="53f92e11b6"><rect x="0" width="570" y="0" height="570"/></clipPath><clipPath id="a469c42c2f"><path d="M 196 196 L 956 196 L 956 956 L 196 956 Z M 196 196 " clip-rule="nonzero"/></clipPath><clipPath id="9225145fbd"><path d="M 196.242188 859.542969 L 859.558594 196.226562 L 955.769531 292.4375 L 292.453125 955.753906 Z M 196.242188 859.542969 " clip-rule="nonzero"/></clipPath><clipPath id="462e1e79e9"><path d="M 0.078125 0.078125 L 759.921875 0.078125 L 759.921875 759.917969 L 0.078125 759.917969 Z M 0.078125 0.078125 " clip-rule="nonzero"/></clipPath><clipPath id="72b8805593"><path d="M 0.242188 663.542969 L 663.558594 0.226562 L 759.769531 96.4375 L 96.453125 759.753906 Z M 0.242188 663.542969 " clip-rule="nonzero"/></clipPath><clipPath id="318a1e6316"><rect x="0" width="760" y="0" height="760"/></clipPath><clipPath id="ebb2256987"><path d="M 196 196 L 956 196 L 956 956 L 196 956 Z M 196 196 " clip-rule="nonzero"/></clipPath><clipPath id="66b1f1e664"><path d="M 859.546875 955.742188 L 196.230469 292.425781 L 292.441406 196.214844 L 955.757812 859.53125 Z M 859.546875 955.742188 " clip-rule="nonzero"/></clipPath><clipPath id="0792e9365c"><path d="M 0.078125 0.078125 L 759.921875 0.078125 L 759.921875 759.917969 L 0.078125 759.917969 Z M 0.078125 0.078125 " clip-rule="nonzero"/></clipPath><clipPath id="a63594fdb0"><path d="M 663.546875 759.742188 L 0.230469 96.425781 L 96.441406 0.214844 L 759.757812 663.53125 Z M 663.546875 759.742188 " clip-rule="nonzero"/></clipPath><clipPath id="dee28e0846"><rect x="0" width="760" y="0" height="760"/></clipPath><clipPath id="7cdfa208a8"><path d="M 393.949219 413.359375 L 757.863281 413.359375 L 757.863281 777.273438 L 393.949219 777.273438 Z M 393.949219 413.359375 " clip-rule="nonzero"/></clipPath><clipPath id="23f9a0d898"><rect x="0" width="1152" y="0" height="1152"/></clipPath></defs><g transform="matrix(1, 0, 0, 1, 174, 174)"><g clip-path="url(#23f9a0d898)"><g clip-path="url(#fd26925886)"><g clip-path="url(#83325909bc)"><g clip-path="url(#d2e368f8de)"><g transform="matrix(1, 0, 0, 1, 169, 169)"><g clip-path="url(#29438713a7)"><g clip-path="url(#cc0598a0eb)"><g clip-path="url(#9e62c92776)"><g clip-path="url(#6ea35bb303)"><path fill="#00a6f4" d="M -167.933594 406.996094 L 407 -167.941406 L 981.9375 406.996094 L 407 981.933594 Z M -167.933594 406.996094 " fill-opacity="1" fill-rule="nonzero"/></g></g></g></g></g></g></g></g><g clip-path="url(#01cf11ca93)"><g clip-path="url(#e2dd12b53d)"><g clip-path="url(#258b85edda)"><g transform="matrix(1, 0, 0, 1, 291, 291)"><g clip-path="url(#53f92e11b6)"><g clip-path="url(#016976b7f3)"><g clip-path="url(#2f5545f86b)"><g clip-path="url(#b6e6d936b8)"><path fill="#ffffff" d="M -116.855469 284.992188 L 285.003906 -116.867188 L 686.863281 284.992188 L 285.003906 686.851562 Z M -116.855469 284.992188 " fill-opacity="1" fill-rule="nonzero"/></g></g></g></g></g></g></g></g><g clip-path="url(#a469c42c2f)"><g clip-path="url(#9225145fbd)"><g transform="matrix(1, 0, 0, 1, 196, 196)"><g clip-path="url(#318a1e6316)"><g clip-path="url(#462e1e79e9)"><g clip-path="url(#72b8805593)"><path fill="#ffffff" d="M 0.242188 663.542969 L 663.570312 0.214844 L 759.78125 96.425781 L 96.453125 759.753906 Z M 0.242188 663.542969 " fill-opacity="1" fill-rule="nonzero"/></g></g></g></g></g></g><g clip-path="url(#ebb2256987)"><g clip-path="url(#66b1f1e664)"><g transform="matrix(1, 0, 0, 1, 196, 196)"><g clip-path="url(#dee28e0846)"><g clip-path="url(#0792e9365c)"><g clip-path="url(#a63594fdb0)"><path fill="#ffffff" d="M 663.546875 759.742188 L 0.21875 96.410156 L 96.429688 0.199219 L 759.757812 663.53125 Z M 663.546875 759.742188 " fill-opacity="1" fill-rule="nonzero"/></g></g></g></g></g></g><g clip-path="url(#7cdfa208a8)"><path fill="#000000" d="M 650.214844 740.011719 C 646.183594 733.027344 637.808594 730.105469 630.304688 733.074219 C 612.992188 739.914062 594.691406 743.386719 575.90625 743.386719 C 537.871094 743.386719 502.023438 729.140625 474.457031 703.175781 L 476.117188 701.515625 C 479.121094 698.511719 479.984375 694.199219 478.367188 690.273438 C 476.746094 686.347656 473.097656 683.894531 468.855469 683.878906 L 441.371094 683.78125 L 441.335938 683.78125 C 438.535156 683.78125 436.011719 684.828125 434.035156 686.808594 C 432.039062 688.800781 431 691.335938 431.007812 694.152344 L 431.105469 721.636719 C 431.121094 725.886719 433.574219 729.53125 437.5 731.148438 C 441.433594 732.773438 445.738281 731.910156 448.742188 728.898438 L 450.484375 727.15625 C 484.460938 759.515625 528.816406 777.289062 575.90625 777.289062 C 599.085938 777.289062 621.660156 772.992188 643.011719 764.511719 C 647.390625 762.777344 650.789062 759.242188 652.320312 754.824219 C 653.863281 750.410156 653.386719 745.53125 651.03125 741.445312 L 650.214844 740.027344 Z M 643.765625 751.828125 C 643.085938 753.792969 641.628906 755.292969 639.667969 756.070312 C 619.386719 764.128906 597.929688 768.203125 575.90625 768.203125 C 529.722656 768.203125 486.308594 750.21875 453.648438 717.566406 C 452.796875 716.714844 451.648438 716.238281 450.449219 716.238281 C 449.246094 716.238281 448.09375 716.714844 447.246094 717.566406 L 442.339844 722.472656 C 441.9375 722.875 441.476562 722.964844 440.949219 722.753906 C 440.429688 722.542969 440.164062 722.140625 440.164062 721.582031 L 440.066406 694.101562 C 440.066406 693.707031 440.15625 693.472656 440.4375 693.195312 C 440.714844 692.914062 440.910156 692.800781 441.34375 692.824219 L 468.824219 692.921875 C 469.390625 692.921875 469.785156 693.1875 469.996094 693.707031 C 470.207031 694.230469 470.117188 694.695312 469.714844 695.097656 L 464.800781 700.011719 C 463.035156 701.777344 463.035156 704.648438 464.800781 706.414062 C 494.480469 736.09375 533.9375 752.441406 575.90625 752.441406 C 595.839844 752.441406 615.257812 748.753906 633.636719 741.492188 C 636.925781 740.195312 640.597656 741.46875 642.363281 744.535156 L 643.179688 745.953125 C 644.234375 747.78125 644.4375 749.867188 643.757812 751.828125 Z M 707.730469 720.738281 C 740.089844 686.761719 757.863281 642.40625 757.863281 595.316406 C 757.863281 572.144531 753.566406 549.5625 745.089844 528.210938 C 743.351562 523.832031 739.820312 520.441406 735.402344 518.902344 C 730.984375 517.359375 726.109375 517.835938 722.023438 520.191406 L 720.605469 521.007812 C 713.621094 525.039062 710.699219 533.414062 713.664062 540.917969 C 720.507812 558.230469 723.980469 576.53125 723.980469 595.316406 C 723.980469 633.351562 709.730469 669.199219 683.765625 696.765625 L 682.105469 695.105469 C 679.101562 692.101562 674.789062 691.238281 670.855469 692.855469 C 666.929688 694.476562 664.476562 698.125 664.460938 702.375 L 664.363281 729.851562 C 664.355469 732.667969 665.398438 735.203125 667.390625 737.195312 C 669.371094 739.175781 671.898438 740.222656 674.691406 740.222656 L 674.730469 740.222656 L 702.210938 740.125 C 706.460938 740.109375 710.109375 737.65625 711.726562 733.730469 C 713.347656 729.796875 712.480469 725.492188 709.476562 722.488281 Z M 703.351562 730.273438 C 703.140625 730.792969 702.742188 731.058594 702.183594 731.058594 L 674.699219 731.15625 C 674.292969 731.171875 674.074219 731.066406 673.792969 730.777344 C 673.515625 730.5 673.417969 730.273438 673.421875 729.871094 L 673.523438 702.390625 C 673.523438 701.824219 673.785156 701.433594 674.308594 701.21875 C 674.488281 701.144531 674.660156 701.105469 674.835938 701.105469 C 675.152344 701.105469 675.441406 701.234375 675.695312 701.5 L 680.613281 706.40625 C 682.378906 708.175781 685.246094 708.175781 687.019531 706.40625 C 716.699219 676.726562 733.046875 637.269531 733.046875 595.300781 C 733.046875 575.367188 729.363281 555.949219 722.097656 537.574219 C 720.800781 534.28125 722.078125 530.613281 725.140625 528.84375 L 726.5625 528.03125 C 728.386719 526.972656 730.472656 526.769531 732.433594 527.449219 C 734.398438 528.128906 735.902344 529.585938 736.679688 531.539062 C 744.734375 551.828125 748.8125 573.277344 748.8125 595.300781 C 748.8125 641.484375 730.828125 684.90625 698.171875 717.558594 C 697.328125 718.402344 696.84375 719.558594 696.84375 720.761719 C 696.84375 721.960938 697.320312 723.117188 698.171875 723.960938 L 703.089844 728.875 C 703.488281 729.277344 703.578125 729.738281 703.367188 730.257812 Z M 501.597656 450.617188 C 505.632812 457.601562 514.003906 460.523438 521.507812 457.558594 C 538.820312 450.714844 557.121094 447.242188 575.90625 447.242188 C 613.945312 447.242188 649.792969 461.492188 677.355469 487.457031 L 675.695312 489.117188 C 672.691406 492.121094 671.832031 496.433594 673.445312 500.359375 C 675.070312 504.292969 678.714844 506.738281 682.960938 506.753906 L 710.441406 506.851562 L 710.480469 506.851562 C 713.28125 506.851562 715.800781 505.800781 717.78125 503.824219 C 719.773438 501.832031 720.816406 499.292969 720.808594 496.476562 L 720.710938 468.996094 C 720.695312 464.746094 718.242188 461.097656 714.316406 459.476562 C 710.390625 457.859375 706.078125 458.71875 703.074219 461.726562 L 701.328125 463.46875 C 667.351562 431.109375 622.996094 413.335938 575.90625 413.335938 C 552.734375 413.335938 530.152344 417.632812 508.800781 426.109375 C 504.421875 427.847656 501.027344 431.382812 499.492188 435.796875 C 497.960938 440.214844 498.429688 445.09375 500.785156 449.175781 L 501.597656 450.597656 Z M 508.046875 438.800781 C 508.726562 436.839844 510.183594 435.335938 512.140625 434.558594 C 532.425781 426.503906 553.875 422.425781 575.898438 422.425781 C 622.082031 422.425781 665.496094 440.410156 698.15625 473.066406 C 699.925781 474.832031 702.792969 474.832031 704.566406 473.066406 L 709.484375 468.15625 C 709.882812 467.757812 710.351562 467.667969 710.871094 467.878906 C 711.394531 468.097656 711.65625 468.488281 711.65625 469.046875 L 711.753906 496.53125 C 711.753906 496.921875 711.664062 497.15625 711.386719 497.4375 C 711.105469 497.714844 710.878906 497.804688 710.488281 497.804688 L 710.480469 497.804688 L 682.996094 497.707031 C 682.429688 497.707031 682.039062 497.445312 681.828125 496.921875 C 681.617188 496.402344 681.707031 495.933594 682.105469 495.542969 L 687.019531 490.632812 C 687.867188 489.78125 688.351562 488.632812 688.351562 487.433594 C 688.351562 486.230469 687.875 485.078125 687.019531 484.230469 C 657.34375 454.550781 617.886719 438.207031 575.914062 438.207031 C 555.984375 438.207031 536.5625 441.890625 518.1875 449.152344 C 514.894531 450.453125 511.226562 449.175781 509.457031 446.109375 L 508.644531 444.691406 C 507.585938 442.863281 507.382812 440.78125 508.0625 438.816406 Z M 438.148438 649.714844 C 431.308594 632.402344 427.835938 614.101562 427.835938 595.316406 C 427.835938 557.277344 442.082031 521.429688 468.046875 493.867188 L 469.707031 495.527344 C 472.710938 498.53125 477.023438 499.390625 480.949219 497.777344 C 484.882812 496.152344 487.328125 492.507812 487.34375 488.253906 L 487.441406 460.78125 C 487.449219 457.964844 486.410156 455.429688 484.414062 453.433594 C 482.4375 451.457031 479.90625 450.40625 477.113281 450.40625 L 477.078125 450.40625 L 449.59375 450.503906 C 445.34375 450.519531 441.695312 452.972656 440.082031 456.898438 C 438.457031 460.832031 439.320312 465.136719 442.332031 468.140625 L 444.074219 469.886719 C 411.714844 503.867188 393.949219 548.226562 393.949219 595.316406 C 393.949219 618.488281 398.246094 641.070312 406.726562 662.421875 C 408.460938 666.800781 411.996094 670.195312 416.410156 671.730469 C 418.125 672.328125 419.90625 672.621094 421.683594 672.621094 C 424.492188 672.621094 427.292969 671.886719 429.789062 670.4375 L 431.210938 669.625 C 438.195312 665.589844 441.117188 657.21875 438.148438 649.714844 Z M 426.679688 661.777344 L 425.261719 662.59375 C 423.433594 663.652344 421.351562 663.855469 419.386719 663.175781 C 417.421875 662.496094 415.921875 661.039062 415.144531 659.082031 C 407.085938 638.796875 403.011719 617.347656 403.011719 595.324219 C 403.011719 549.140625 420.996094 505.71875 453.648438 473.066406 C 455.414062 471.296875 455.414062 468.429688 453.648438 466.664062 L 448.734375 461.746094 C 448.332031 461.347656 448.242188 460.886719 448.453125 460.367188 C 448.664062 459.84375 449.066406 459.582031 449.625 459.582031 L 477.105469 459.480469 L 477.113281 459.480469 C 477.507812 459.480469 477.734375 459.582031 478.011719 459.851562 C 478.292969 460.132812 478.390625 460.359375 478.382812 460.757812 L 478.285156 488.234375 C 478.285156 488.800781 478.019531 489.191406 477.5 489.410156 C 476.980469 489.621094 476.511719 489.53125 476.109375 489.132812 L 471.195312 484.222656 C 469.429688 482.457031 466.558594 482.457031 464.785156 484.222656 C 435.105469 513.902344 418.761719 553.359375 418.761719 595.332031 C 418.761719 615.261719 422.445312 634.6875 429.707031 653.058594 C 431.007812 656.351562 429.730469 660.019531 426.664062 661.785156 Z M 677.808594 595.316406 C 677.808594 582.011719 666.984375 571.183594 653.679688 571.183594 C 640.378906 571.183594 629.550781 582.011719 629.550781 595.316406 C 629.550781 608.617188 640.378906 619.445312 653.679688 619.445312 C 666.984375 619.445312 677.808594 608.617188 677.808594 595.316406 Z M 653.6875 610.386719 C 645.382812 610.386719 638.617188 603.628906 638.617188 595.316406 C 638.617188 587.003906 645.375 580.246094 653.6875 580.246094 C 662 580.246094 668.757812 587.003906 668.757812 595.316406 C 668.757812 603.628906 662 610.386719 653.6875 610.386719 Z M 668.011719 639.964844 L 668.804688 635.699219 L 671.542969 634.5625 L 675.121094 637.015625 C 679.125 639.761719 684.523438 639.257812 687.957031 635.828125 L 694.195312 629.59375 C 697.628906 626.15625 698.128906 620.765625 695.378906 616.757812 L 692.925781 613.179688 L 694.066406 610.4375 L 698.332031 609.644531 C 703.101562 608.753906 706.570312 604.585938 706.570312 599.730469 L 706.570312 590.914062 C 706.570312 586.058594 703.101562 581.890625 698.332031 581 L 694.066406 580.207031 L 692.925781 577.46875 L 695.378906 573.886719 C 698.128906 569.886719 697.621094 564.488281 694.195312 561.054688 L 687.957031 554.816406 C 684.523438 551.382812 679.125 550.882812 675.121094 553.632812 L 671.542969 556.085938 L 668.796875 554.945312 L 668.003906 550.679688 C 667.113281 545.90625 662.945312 542.441406 658.089844 542.441406 L 649.269531 542.441406 C 644.988281 542.441406 641.246094 545.136719 639.8125 549.042969 L 639.8125 514.046875 C 639.8125 507.371094 634.382812 501.945312 627.707031 501.945312 L 501.683594 501.945312 C 495.007812 501.945312 489.578125 507.371094 489.578125 514.046875 L 489.578125 676.613281 C 489.578125 683.289062 495.007812 688.71875 501.683594 688.71875 L 627.707031 688.71875 C 634.382812 688.71875 639.8125 683.289062 639.8125 676.613281 L 639.8125 641.621094 C 641.246094 645.523438 644.988281 648.21875 649.269531 648.21875 L 658.089844 648.21875 C 662.945312 648.21875 667.113281 644.753906 668.003906 639.980469 Z M 627.714844 679.640625 L 501.691406 679.640625 C 500.042969 679.640625 498.648438 678.253906 498.648438 676.597656 L 498.648438 514.03125 C 498.648438 512.386719 500.035156 510.988281 501.691406 510.988281 L 627.714844 510.988281 C 629.363281 510.988281 630.757812 512.378906 630.757812 514.03125 L 630.757812 552.769531 C 626.984375 551.027344 622.429688 551.773438 619.410156 554.800781 L 613.175781 561.039062 C 609.738281 564.472656 609.242188 569.863281 611.988281 573.875 L 614.441406 577.453125 L 613.300781 580.191406 L 609.035156 580.984375 C 604.265625 581.875 600.800781 586.042969 600.800781 590.898438 L 600.800781 593.375 L 567.820312 593.375 C 565.320312 593.375 563.289062 595.40625 563.289062 597.90625 C 563.289062 600.402344 565.320312 602.433594 567.820312 602.433594 L 601.167969 602.433594 C 602.179688 606.058594 605.179688 608.914062 609.027344 609.636719 L 613.296875 610.429688 L 614.433594 613.171875 L 611.980469 616.75 C 609.242188 620.75 609.738281 626.148438 613.167969 629.585938 L 619.402344 635.820312 C 622.421875 638.839844 626.976562 639.589844 630.75 637.851562 L 630.75 676.59375 C 630.75 678.238281 629.363281 679.632812 627.707031 679.632812 Z M 660.347656 631.625 L 659.101562 638.304688 C 659.003906 638.8125 658.609375 639.144531 658.089844 639.144531 L 649.269531 639.144531 C 648.75 639.144531 648.359375 638.8125 648.257812 638.304688 L 647.011719 631.625 C 646.734375 630.113281 645.707031 628.851562 644.296875 628.273438 L 637.011719 625.25 C 636.449219 625.015625 635.863281 624.902344 635.273438 624.902344 C 634.375 624.902344 633.476562 625.175781 632.714844 625.695312 L 627.113281 629.539062 C 626.679688 629.835938 626.175781 629.789062 625.804688 629.417969 L 619.570312 623.183594 C 619.207031 622.8125 619.152344 622.308594 619.449219 621.875 L 623.292969 616.273438 C 624.160156 615.011719 624.324219 613.398438 623.738281 611.976562 L 620.714844 604.691406 C 620.128906 603.273438 618.867188 602.253906 617.363281 601.976562 L 610.683594 600.730469 C 610.175781 600.628906 609.84375 600.238281 609.84375 599.726562 L 609.84375 590.90625 C 609.84375 590.386719 610.175781 589.992188 610.683594 589.902344 L 617.363281 588.65625 C 618.867188 588.378906 620.136719 587.351562 620.714844 585.9375 L 623.738281 578.652344 C 624.324219 577.242188 624.152344 575.625 623.292969 574.355469 L 619.449219 568.746094 C 619.152344 568.316406 619.207031 567.8125 619.570312 567.441406 L 625.804688 561.203125 C 626.167969 560.84375 626.679688 560.789062 627.113281 561.082031 L 632.714844 564.925781 C 633.976562 565.792969 635.589844 565.960938 637.011719 565.371094 L 644.296875 562.351562 C 645.714844 561.761719 646.734375 560.503906 647.011719 559 L 648.257812 552.316406 C 648.359375 551.8125 648.75 551.480469 649.269531 551.480469 L 658.089844 551.480469 C 658.609375 551.480469 659.003906 551.8125 659.101562 552.316406 L 660.347656 559 C 660.625 560.507812 661.652344 561.769531 663.066406 562.351562 L 670.351562 565.371094 C 671.761719 565.960938 673.378906 565.789062 674.648438 564.925781 L 680.257812 561.082031 C 680.679688 560.789062 681.191406 560.84375 681.5625 561.203125 L 687.800781 567.441406 C 688.160156 567.804688 688.214844 568.316406 687.917969 568.746094 L 684.078125 574.347656 C 683.207031 575.609375 683.042969 577.226562 683.632812 578.644531 L 686.652344 585.929688 C 687.242188 587.351562 688.5 588.371094 690.003906 588.648438 L 696.683594 589.894531 C 697.191406 589.984375 697.523438 590.386719 697.523438 590.898438 L 697.523438 599.71875 C 697.523438 600.238281 697.191406 600.628906 696.683594 600.722656 L 690.003906 601.96875 C 688.5 602.246094 687.234375 603.273438 686.652344 604.683594 L 683.632812 611.972656 C 683.042969 613.382812 683.214844 615 684.078125 616.265625 L 687.917969 621.867188 C 688.214844 622.300781 688.167969 622.8125 687.800781 623.175781 L 681.5625 629.410156 C 681.199219 629.773438 680.6875 629.828125 680.257812 629.53125 L 674.65625 625.6875 C 673.394531 624.820312 671.777344 624.65625 670.359375 625.242188 L 663.074219 628.265625 C 661.652344 628.851562 660.632812 630.113281 660.355469 631.617188 Z M 547.511719 587.238281 L 538.753906 585.546875 L 534.441406 577.738281 C 533.640625 576.296875 532.125 575.398438 530.476562 575.398438 C 528.832031 575.398438 527.308594 576.296875 526.515625 577.738281 L 522.195312 585.546875 L 513.4375 587.238281 C 511.820312 587.546875 510.5 588.714844 509.988281 590.289062 C 509.480469 591.859375 509.859375 593.578125 510.984375 594.78125 L 517.078125 601.296875 L 515.976562 610.152344 C 515.769531 611.789062 516.472656 613.40625 517.808594 614.371094 C 518.59375 614.945312 519.53125 615.238281 520.472656 615.238281 C 521.125 615.238281 521.78125 615.097656 522.390625 614.808594 L 530.472656 611.027344 L 538.550781 614.808594 C 540.042969 615.511719 541.796875 615.339844 543.132812 614.371094 C 544.46875 613.40625 545.171875 611.78125 544.96875 610.152344 L 543.863281 601.296875 L 549.957031 594.78125 C 551.082031 593.578125 551.46875 591.851562 550.953125 590.289062 C 550.441406 588.714844 549.121094 587.554688 547.503906 587.238281 Z M 535.808594 596.652344 C 534.886719 597.632812 534.457031 598.96875 534.625 600.304688 L 534.96875 603.128906 L 532.394531 601.921875 C 531.179688 601.355469 529.777344 601.355469 528.554688 601.921875 L 525.976562 603.128906 L 526.324219 600.304688 C 526.492188 598.96875 526.054688 597.632812 525.140625 596.652344 L 523.199219 594.574219 L 525.992188 594.039062 C 527.316406 593.78125 528.449219 592.960938 529.097656 591.78125 L 530.472656 589.289062 L 531.84375 591.78125 C 532.496094 592.960938 533.632812 593.78125 534.957031 594.039062 L 537.75 594.574219 Z M 563.289062 545.507812 C 563.289062 543.007812 565.320312 540.976562 567.820312 540.976562 L 615.105469 540.976562 C 617.605469 540.976562 619.636719 543.007812 619.636719 545.507812 C 619.636719 548.007812 617.605469 550.039062 615.105469 550.039062 L 567.820312 550.039062 C 565.320312 550.039062 563.289062 548.007812 563.289062 545.507812 Z M 517.078125 551.488281 L 515.976562 560.34375 C 515.769531 561.980469 516.472656 563.597656 517.808594 564.5625 C 519.144531 565.53125 520.898438 565.703125 522.390625 565.003906 L 530.472656 561.21875 L 538.550781 565.003906 C 539.160156 565.289062 539.816406 565.433594 540.46875 565.433594 C 541.410156 565.433594 542.339844 565.136719 543.132812 564.5625 C 544.46875 563.597656 545.171875 561.972656 544.96875 560.34375 L 543.863281 551.488281 L 549.957031 544.972656 C 551.082031 543.769531 551.46875 542.042969 550.953125 540.480469 C 550.449219 538.910156 549.121094 537.746094 547.503906 537.429688 L 538.746094 535.738281 L 534.433594 527.929688 C 533.632812 526.488281 532.117188 525.589844 530.472656 525.589844 C 528.824219 525.589844 527.300781 526.488281 526.507812 527.929688 L 522.1875 535.738281 L 513.429688 537.429688 C 511.816406 537.738281 510.492188 538.910156 509.980469 540.480469 C 509.464844 542.050781 509.851562 543.769531 510.976562 544.972656 L 517.070312 551.488281 Z M 525.992188 544.230469 C 527.316406 543.976562 528.449219 543.152344 529.097656 541.972656 L 530.472656 539.484375 L 531.84375 541.972656 C 532.496094 543.152344 533.632812 543.976562 534.957031 544.230469 L 537.75 544.769531 L 535.808594 546.84375 C 534.894531 547.824219 534.457031 549.160156 534.625 550.5 L 534.96875 553.320312 L 532.394531 552.113281 C 531.179688 551.546875 529.777344 551.546875 528.554688 552.113281 L 525.976562 553.320312 L 526.324219 550.5 C 526.492188 549.160156 526.054688 547.824219 525.140625 546.84375 L 523.199219 544.769531 Z M 619.636719 645.125 C 619.636719 647.621094 617.605469 649.652344 615.105469 649.652344 L 567.820312 649.652344 C 565.320312 649.652344 563.289062 647.621094 563.289062 645.125 C 563.289062 642.625 565.320312 640.59375 567.820312 640.59375 L 615.105469 640.59375 C 617.605469 640.59375 619.636719 642.625 619.636719 645.125 Z M 547.511719 637.042969 L 538.753906 635.355469 L 534.441406 627.546875 C 533.640625 626.105469 532.125 625.207031 530.476562 625.207031 C 528.832031 625.207031 527.308594 626.105469 526.515625 627.546875 L 522.195312 635.355469 L 513.4375 637.042969 C 511.820312 637.355469 510.5 638.523438 509.988281 640.09375 C 509.472656 641.664062 509.859375 643.386719 510.984375 644.585938 L 517.078125 651.101562 L 515.976562 659.960938 C 515.769531 661.597656 516.472656 663.214844 517.808594 664.179688 C 518.59375 664.753906 519.53125 665.046875 520.472656 665.046875 C 521.125 665.046875 521.78125 664.90625 522.390625 664.617188 L 530.472656 660.835938 L 538.550781 664.617188 C 540.042969 665.3125 541.796875 665.144531 543.132812 664.179688 C 544.46875 663.214844 545.171875 661.589844 544.96875 659.960938 L 543.863281 651.101562 L 549.957031 644.585938 C 551.082031 643.386719 551.46875 641.65625 550.953125 640.09375 C 550.449219 638.523438 549.128906 637.363281 547.503906 637.042969 Z M 535.808594 646.460938 C 534.886719 647.441406 534.457031 648.777344 534.625 650.113281 L 534.96875 652.9375 L 532.394531 651.730469 C 531.179688 651.164062 529.777344 651.164062 528.554688 651.730469 L 525.976562 652.9375 L 526.324219 650.113281 C 526.492188 648.777344 526.054688 647.441406 525.140625 646.460938 L 523.199219 644.382812 L 525.992188 643.847656 C 527.316406 643.589844 528.449219 642.769531 529.097656 641.589844 L 530.472656 639.097656 L 531.84375 641.589844 C 532.496094 642.769531 533.632812 643.589844 534.957031 643.847656 L 537.75 644.382812 Z M 535.808594 646.460938 " fill-opacity="1" fill-rule="nonzero"/></g></g></g></svg>