<svg xmlns="http://www.w3.org/2000/svg" xmlns:xlink="http://www.w3.org/1999/xlink" width="2000" zoomAndPan="magnify" viewBox="0 0 1500 1499.999933" height="2000" preserveAspectRatio="xMidYMid meet" version="1.0"><defs><clipPath id="ab39b60093"><path d="M 204 204 L 1190 204 L 1190 1190 L 204 1190 Z M 204 204 " clip-rule="nonzero"/></clipPath><clipPath id="e9778bb8ab"><path d="M 0.0976562 696.996094 L 697.003906 0.0898438 L 1393.90625 696.996094 L 697.003906 1393.898438 Z M 0.0976562 696.996094 " clip-rule="nonzero"/></clipPath><clipPath id="f25f1bd4e3"><path d="M 348.550781 348.542969 C 156.105469 540.988281 156.105469 853 348.550781 1045.445312 C 540.996094 1237.890625 853.007812 1237.890625 1045.453125 1045.445312 C 1237.898438 853 1237.898438 540.988281 1045.453125 348.542969 C 853.007812 156.097656 540.996094 156.097656 348.550781 348.542969 Z M 348.550781 348.542969 " clip-rule="nonzero"/></clipPath><clipPath id="8adf6889ea"><path d="M 0 0 L 986 0 L 986 986 L 0 986 Z M 0 0 " clip-rule="nonzero"/></clipPath><clipPath id="c0db9f4832"><path d="M -203.902344 492.996094 L 493.003906 -203.910156 L 1189.90625 492.996094 L 493.003906 1189.898438 Z M -203.902344 492.996094 " clip-rule="nonzero"/></clipPath><clipPath id="c47b370d79"><path d="M 144.550781 144.542969 C -47.894531 336.988281 -47.894531 649 144.550781 841.445312 C 336.996094 1033.890625 649.007812 1033.890625 841.453125 841.445312 C 1033.898438 649 1033.898438 336.988281 841.453125 144.542969 C 649.007812 -47.902344 336.996094 -47.902344 144.550781 144.542969 Z M 144.550781 144.542969 " clip-rule="nonzero"/></clipPath><clipPath id="030bda3142"><rect x="0" width="986" y="0" height="986"/></clipPath><clipPath id="eb1b8c1b8c"><path d="M 352 352 L 1042 352 L 1042 1042 L 352 1042 Z M 352 352 " clip-rule="nonzero"/></clipPath><clipPath id="31346a9d17"><path d="M 209.894531 696.992188 L 697.003906 209.882812 L 1184.113281 696.992188 L 697.003906 1184.101562 Z M 209.894531 696.992188 " clip-rule="nonzero"/></clipPath><clipPath id="fbeedb2177"><path d="M 453.449219 453.4375 C 318.9375 587.949219 318.9375 806.035156 453.449219 940.546875 C 587.960938 1075.058594 806.046875 1075.058594 940.558594 940.546875 C 1075.070312 806.035156 1075.070312 587.949219 940.558594 453.4375 C 806.046875 318.925781 587.960938 318.925781 453.449219 453.4375 Z M 453.449219 453.4375 " clip-rule="nonzero"/></clipPath><clipPath id="6467658f3f"><path d="M 0 0 L 690 0 L 690 690 L 0 690 Z M 0 0 " clip-rule="nonzero"/></clipPath><clipPath id="7d750585c2"><path d="M -142.105469 344.992188 L 345.003906 -142.117188 L 832.113281 344.992188 L 345.003906 832.101562 Z M -142.105469 344.992188 " clip-rule="nonzero"/></clipPath><clipPath id="de880ab222"><path d="M 101.449219 101.4375 C -33.0625 235.949219 -33.0625 454.035156 101.449219 588.546875 C 235.960938 723.058594 454.046875 723.058594 588.558594 588.546875 C 723.070312 454.035156 723.070312 235.949219 588.558594 101.4375 C 454.046875 -33.074219 235.960938 -33.074219 101.449219 101.4375 Z M 101.449219 101.4375 " clip-rule="nonzero"/></clipPath><clipPath id="b9172d3f05"><rect x="0" width="690" y="0" height="690"/></clipPath><clipPath id="ce7e68bf73"><path d="M 236 236 L 1158 236 L 1158 1158 L 236 1158 Z M 236 236 " clip-rule="nonzero"/></clipPath><clipPath id="c9915c7f2e"><path d="M 236.679688 1040.695312 L 1040.710938 236.664062 L 1157.332031 353.285156 L 353.300781 1157.316406 Z M 236.679688 1040.695312 " clip-rule="nonzero"/></clipPath><clipPath id="0c773cb24d"><path d="M 0.441406 0.441406 L 921.558594 0.441406 L 921.558594 921.320312 L 0.441406 921.320312 Z M 0.441406 0.441406 " clip-rule="nonzero"/></clipPath><clipPath id="1dfca7a136"><path d="M 0.679688 804.695312 L 804.710938 0.664062 L 921.332031 117.285156 L 117.300781 921.316406 Z M 0.679688 804.695312 " clip-rule="nonzero"/></clipPath><clipPath id="4c3f6b10ad"><rect x="0" width="922" y="0" height="922"/></clipPath><clipPath id="617998db12"><path d="M 236 236 L 1158 236 L 1158 1158 L 236 1158 Z M 236 236 " clip-rule="nonzero"/></clipPath><clipPath id="9eb7a7ffb3"><path d="M 1040.699219 1157.300781 L 236.667969 353.265625 L 353.289062 236.644531 L 1157.320312 1040.675781 Z M 1040.699219 1157.300781 " clip-rule="nonzero"/></clipPath><clipPath id="6ec924426c"><path d="M 0.441406 0.441406 L 921.558594 0.441406 L 921.558594 921.320312 L 0.441406 921.320312 Z M 0.441406 0.441406 " clip-rule="nonzero"/></clipPath><clipPath id="8a909633b7"><path d="M 804.699219 921.300781 L 0.667969 117.265625 L 117.289062 0.644531 L 921.320312 804.675781 Z M 804.699219 921.300781 " clip-rule="nonzero"/></clipPath><clipPath id="e149b3be6a"><rect x="0" width="922" y="0" height="922"/></clipPath><clipPath id="83785c93f1"><path d="M 476.332031 499.855469 L 917.445312 499.855469 L 917.445312 940.96875 L 476.332031 940.96875 Z M 476.332031 499.855469 " clip-rule="nonzero"/></clipPath><clipPath id="b5b7ca9121"><rect x="0" width="1394" y="0" height="1394"/></clipPath></defs><g transform="matrix(1, 0, 0, 1, 53, 53)"><g clip-path="url(#b5b7ca9121)"><g clip-path="url(#ab39b60093)"><g clip-path="url(#e9778bb8ab)"><g clip-path="url(#f25f1bd4e3)"><g transform="matrix(1, 0, 0, 1, 204, 204)"><g clip-path="url(#030bda3142)"><g clip-path="url(#8adf6889ea)"><g clip-path="url(#c0db9f4832)"><g clip-path="url(#c47b370d79)"><path fill="#00a6f4" d="M -203.902344 492.996094 L 493.003906 -203.910156 L 1189.90625 492.996094 L 493.003906 1189.898438 Z M -203.902344 492.996094 " fill-opacity="1" fill-rule="nonzero"/></g></g></g></g></g></g></g></g><g clip-path="url(#eb1b8c1b8c)"><g clip-path="url(#31346a9d17)"><g clip-path="url(#fbeedb2177)"><g transform="matrix(1, 0, 0, 1, 352, 352)"><g clip-path="url(#b9172d3f05)"><g clip-path="url(#6467658f3f)"><g clip-path="url(#7d750585c2)"><g clip-path="url(#de880ab222)"><path fill="#ffffff" d="M -142.105469 344.992188 L 345.003906 -142.117188 L 832.113281 344.992188 L 345.003906 832.101562 Z M -142.105469 344.992188 " fill-opacity="1" fill-rule="nonzero"/></g></g></g></g></g></g></g></g><g clip-path="url(#ce7e68bf73)"><g clip-path="url(#c9915c7f2e)"><g transform="matrix(1, 0, 0, 1, 236, 236)"><g clip-path="url(#4c3f6b10ad)"><g clip-path="url(#0c773cb24d)"><g clip-path="url(#1dfca7a136)"><path fill="#ffffff" d="M 0.679688 804.695312 L 804.730469 0.644531 L 921.351562 117.269531 L 117.300781 921.316406 Z M 0.679688 804.695312 " fill-opacity="1" fill-rule="nonzero"/></g></g></g></g></g></g><g clip-path="url(#617998db12)"><g clip-path="url(#9eb7a7ffb3)"><g transform="matrix(1, 0, 0, 1, 236, 236)"><g clip-path="url(#e149b3be6a)"><g clip-path="url(#6ec924426c)"><g clip-path="url(#8a909633b7)"><path fill="#ffffff" d="M 804.699219 921.300781 L 0.652344 117.25 L 117.273438 0.628906 L 921.320312 804.675781 Z M 804.699219 921.300781 " fill-opacity="1" fill-rule="nonzero"/></g></g></g></g></g></g><g clip-path="url(#83785c93f1)"><path fill="#000000" d="M 786.957031 895.804688 C 782.070312 887.339844 771.921875 883.800781 762.824219 887.394531 C 741.839844 895.6875 719.65625 899.898438 696.886719 899.898438 C 650.78125 899.898438 607.328125 882.628906 573.914062 851.15625 L 575.929688 849.140625 C 579.570312 845.5 580.613281 840.273438 578.65625 835.515625 C 576.6875 830.753906 572.269531 827.78125 567.125 827.761719 L 533.8125 827.644531 L 533.765625 827.644531 C 530.371094 827.644531 527.316406 828.917969 524.917969 831.3125 C 522.5 833.730469 521.238281 836.804688 521.246094 840.21875 L 521.367188 873.53125 C 521.382812 878.683594 524.359375 883.105469 529.117188 885.0625 C 533.886719 887.03125 539.101562 885.988281 542.746094 882.335938 L 544.859375 880.222656 C 586.042969 919.445312 639.808594 940.988281 696.886719 940.988281 C 724.984375 940.988281 752.347656 935.78125 778.226562 925.503906 C 783.535156 923.398438 787.65625 919.117188 789.511719 913.761719 C 791.378906 908.40625 790.800781 902.496094 787.945312 897.546875 L 786.957031 895.824219 Z M 779.144531 910.128906 C 778.320312 912.507812 776.554688 914.328125 774.175781 915.273438 C 749.59375 925.035156 723.582031 929.980469 696.886719 929.980469 C 640.90625 929.980469 588.285156 908.179688 548.691406 868.597656 C 547.660156 867.5625 546.269531 866.988281 544.8125 866.988281 C 543.359375 866.988281 541.957031 867.5625 540.933594 868.597656 L 534.984375 874.546875 C 534.5 875.03125 533.941406 875.140625 533.300781 874.886719 C 532.667969 874.628906 532.347656 874.144531 532.347656 873.46875 L 532.230469 840.15625 C 532.230469 839.679688 532.339844 839.394531 532.679688 839.054688 C 533.015625 838.71875 533.253906 838.582031 533.777344 838.609375 L 567.089844 838.726562 C 567.773438 838.726562 568.25 839.046875 568.507812 839.679688 C 568.761719 840.308594 568.652344 840.878906 568.167969 841.363281 L 562.210938 847.320312 C 560.070312 849.460938 560.070312 852.941406 562.210938 855.082031 C 598.1875 891.054688 646.011719 910.871094 696.886719 910.871094 C 721.046875 910.871094 744.585938 906.402344 766.863281 897.601562 C 770.851562 896.027344 775.300781 897.574219 777.441406 901.289062 L 778.429688 903.007812 C 779.710938 905.222656 779.957031 907.75 779.132812 910.128906 Z M 856.675781 872.441406 C 895.902344 831.257812 917.445312 777.492188 917.445312 720.414062 C 917.445312 692.328125 912.238281 664.953125 901.960938 639.074219 C 899.855469 633.765625 895.570312 629.65625 890.21875 627.789062 C 884.863281 625.921875 878.953125 626.496094 874 629.351562 L 872.28125 630.339844 C 863.816406 635.230469 860.273438 645.378906 863.871094 654.476562 C 872.160156 675.460938 876.371094 697.644531 876.371094 720.414062 C 876.371094 766.519531 859.101562 809.972656 827.628906 843.386719 L 825.617188 841.371094 C 821.972656 837.730469 816.746094 836.6875 811.980469 838.644531 C 807.222656 840.613281 804.246094 845.03125 804.226562 850.183594 L 804.109375 883.488281 C 804.101562 886.902344 805.363281 889.976562 807.777344 892.390625 C 810.175781 894.789062 813.242188 896.0625 816.628906 896.0625 L 816.675781 896.0625 L 849.988281 895.945312 C 855.140625 895.925781 859.558594 892.949219 861.519531 888.191406 C 863.484375 883.425781 862.433594 878.207031 858.789062 874.566406 Z M 851.367188 884 C 851.113281 884.632812 850.628906 884.953125 849.949219 884.953125 L 816.636719 885.070312 C 816.144531 885.089844 815.878906 884.960938 815.539062 884.613281 C 815.199219 884.273438 815.082031 884 815.089844 883.515625 L 815.210938 850.203125 C 815.210938 849.515625 815.53125 849.039062 816.160156 848.785156 C 816.382812 848.691406 816.59375 848.648438 816.800781 848.648438 C 817.1875 848.648438 817.535156 848.804688 817.847656 849.125 L 823.804688 855.070312 C 825.945312 857.214844 829.421875 857.214844 831.574219 855.070312 C 867.550781 819.097656 887.363281 771.269531 887.363281 720.394531 C 887.363281 696.234375 882.898438 672.695312 874.09375 650.421875 C 872.519531 646.429688 874.066406 641.984375 877.78125 639.839844 L 879.5 638.851562 C 881.714844 637.570312 884.242188 637.324219 886.621094 638.148438 C 889 638.972656 890.820312 640.738281 891.765625 643.109375 C 901.53125 667.699219 906.472656 693.699219 906.472656 720.394531 C 906.472656 776.375 884.671875 829.007812 845.089844 868.589844 C 844.066406 869.613281 843.480469 871.015625 843.480469 872.46875 C 843.480469 873.925781 844.054688 875.324219 845.089844 876.347656 L 851.046875 882.308594 C 851.535156 882.792969 851.644531 883.351562 851.386719 883.980469 Z M 606.816406 545.019531 C 611.703125 553.484375 621.851562 557.027344 630.949219 553.429688 C 651.933594 545.140625 674.117188 540.929688 696.886719 540.929688 C 742.992188 540.929688 786.445312 558.199219 819.859375 589.671875 L 817.847656 591.683594 C 814.203125 595.328125 813.160156 600.554688 815.117188 605.3125 C 817.085938 610.078125 821.507812 613.046875 826.648438 613.0625 L 859.960938 613.183594 L 860.007812 613.183594 C 863.402344 613.183594 866.460938 611.910156 868.859375 609.511719 C 871.273438 607.097656 872.535156 604.019531 872.527344 600.609375 L 872.410156 567.296875 C 872.390625 562.144531 869.414062 557.722656 864.65625 555.753906 C 859.898438 553.796875 854.671875 554.839844 851.03125 558.480469 L 848.917969 560.597656 C 807.734375 521.371094 753.964844 499.828125 696.886719 499.828125 C 668.800781 499.828125 641.429688 505.035156 615.546875 515.3125 C 610.238281 517.417969 606.121094 521.703125 604.261719 527.054688 C 602.40625 532.410156 602.972656 538.320312 605.828125 543.273438 L 606.816406 544.992188 Z M 614.632812 530.699219 C 615.457031 528.316406 617.222656 526.496094 619.59375 525.554688 C 644.183594 515.789062 670.183594 510.847656 696.878906 510.847656 C 752.859375 510.847656 805.480469 532.648438 845.074219 572.226562 C 847.214844 574.371094 850.691406 574.371094 852.84375 572.226562 L 858.800781 566.28125 C 859.285156 565.792969 859.851562 565.683594 860.484375 565.941406 C 861.117188 566.207031 861.4375 566.683594 861.4375 567.359375 L 861.554688 600.671875 C 861.554688 601.148438 861.445312 601.429688 861.105469 601.769531 C 860.769531 602.109375 860.492188 602.21875 860.015625 602.21875 L 860.007812 602.21875 L 826.695312 602.097656 C 826.007812 602.097656 825.535156 601.777344 825.277344 601.148438 C 825.019531 600.515625 825.128906 599.949219 825.617188 599.472656 L 831.574219 593.523438 C 832.597656 592.488281 833.183594 591.097656 833.183594 589.644531 C 833.183594 588.1875 832.609375 586.789062 831.574219 585.761719 C 795.597656 549.789062 747.769531 529.976562 696.898438 529.976562 C 672.734375 529.976562 649.199219 534.441406 626.921875 543.246094 C 622.933594 544.820312 618.484375 543.273438 616.34375 539.554688 L 615.355469 537.835938 C 614.074219 535.621094 613.828125 533.09375 614.648438 530.714844 Z M 529.90625 786.351562 C 521.613281 765.367188 517.402344 743.183594 517.402344 720.414062 C 517.402344 674.308594 534.671875 630.855469 566.144531 597.441406 L 568.160156 599.453125 C 571.800781 603.097656 577.027344 604.140625 581.785156 602.183594 C 586.554688 600.214844 589.519531 595.792969 589.539062 590.640625 L 589.65625 557.339844 C 589.664062 553.925781 588.402344 550.851562 585.988281 548.433594 C 583.589844 546.035156 580.523438 544.765625 577.136719 544.765625 L 577.089844 544.765625 L 543.777344 544.882812 C 538.625 544.902344 534.207031 547.875 532.246094 552.632812 C 530.28125 557.402344 531.324219 562.617188 534.976562 566.261719 L 537.089844 568.375 C 497.863281 609.566406 476.332031 663.332031 476.332031 720.414062 C 476.332031 748.5 481.539062 775.871094 491.816406 801.753906 C 493.921875 807.0625 498.203125 811.179688 503.558594 813.039062 C 505.632812 813.761719 507.792969 814.117188 509.945312 814.117188 C 513.347656 814.117188 516.746094 813.230469 519.773438 811.472656 L 521.496094 810.484375 C 529.960938 805.597656 533.5 795.449219 529.90625 786.351562 Z M 516.003906 800.976562 L 514.28125 801.964844 C 512.066406 803.246094 509.542969 803.492188 507.164062 802.667969 C 504.785156 801.84375 502.960938 800.078125 502.019531 797.707031 C 492.253906 773.117188 487.3125 747.117188 487.3125 720.421875 C 487.3125 664.441406 509.113281 611.808594 548.691406 572.226562 C 550.835938 570.085938 550.835938 566.609375 548.691406 564.46875 L 542.734375 558.507812 C 542.25 558.023438 542.140625 557.464844 542.398438 556.835938 C 542.652344 556.203125 543.136719 555.882812 543.816406 555.882812 L 577.128906 555.765625 L 577.136719 555.765625 C 577.613281 555.765625 577.886719 555.882812 578.226562 556.210938 C 578.566406 556.550781 578.683594 556.824219 578.675781 557.3125 L 578.554688 590.613281 C 578.554688 591.300781 578.234375 591.777344 577.605469 592.042969 C 576.972656 592.296875 576.40625 592.1875 575.917969 591.703125 L 569.960938 585.753906 C 567.820312 583.613281 564.34375 583.613281 562.191406 585.753906 C 526.214844 621.730469 506.402344 669.558594 506.402344 720.429688 C 506.402344 744.59375 510.871094 768.140625 519.671875 790.40625 C 521.246094 794.394531 519.699219 798.84375 515.984375 800.984375 Z M 820.410156 720.414062 C 820.410156 704.289062 807.285156 691.164062 791.160156 691.164062 C 775.035156 691.164062 761.910156 704.289062 761.910156 720.414062 C 761.910156 736.539062 775.035156 749.660156 791.160156 749.660156 C 807.285156 749.660156 820.410156 736.539062 820.410156 720.414062 Z M 791.167969 738.679688 C 781.101562 738.679688 772.902344 730.488281 772.902344 720.414062 C 772.902344 710.335938 781.09375 702.144531 791.167969 702.144531 C 801.246094 702.144531 809.433594 710.335938 809.433594 720.414062 C 809.433594 730.488281 801.246094 738.679688 791.167969 738.679688 Z M 808.53125 774.535156 L 809.492188 769.367188 L 812.8125 767.984375 L 817.152344 770.957031 C 822 774.289062 828.542969 773.675781 832.707031 769.519531 L 840.269531 761.960938 C 844.433594 757.796875 845.035156 751.261719 841.703125 746.402344 L 838.730469 742.066406 L 840.113281 738.742188 L 845.28125 737.78125 C 851.066406 736.703125 855.265625 731.652344 855.265625 725.765625 L 855.265625 715.078125 C 855.265625 709.191406 851.066406 704.140625 845.28125 703.0625 L 840.113281 702.101562 L 838.730469 698.777344 L 841.703125 694.441406 C 845.035156 689.589844 844.421875 683.046875 840.269531 678.882812 L 832.707031 671.324219 C 828.542969 667.160156 822 666.554688 817.152344 669.886719 L 812.8125 672.859375 L 809.480469 671.480469 L 808.519531 666.308594 C 807.441406 660.523438 802.386719 656.324219 796.503906 656.324219 L 785.816406 656.324219 C 780.625 656.324219 776.085938 659.589844 774.347656 664.320312 L 774.347656 621.902344 C 774.347656 613.8125 767.769531 607.234375 759.675781 607.234375 L 606.917969 607.234375 C 598.828125 607.234375 592.246094 613.8125 592.246094 621.902344 L 592.246094 818.960938 C 592.246094 827.050781 598.828125 833.628906 606.917969 833.628906 L 759.675781 833.628906 C 767.769531 833.628906 774.347656 827.050781 774.347656 818.960938 L 774.347656 776.539062 C 776.085938 781.273438 780.625 784.539062 785.816406 784.539062 L 796.503906 784.539062 C 802.386719 784.539062 807.441406 780.339844 808.519531 774.554688 Z M 759.6875 822.628906 L 606.925781 822.628906 C 604.929688 822.628906 603.238281 820.945312 603.238281 818.941406 L 603.238281 621.886719 C 603.238281 619.890625 604.921875 618.199219 606.925781 618.199219 L 759.6875 618.199219 C 761.683594 618.199219 763.375 619.882812 763.375 621.886719 L 763.375 668.84375 C 758.800781 666.730469 753.28125 667.636719 749.621094 671.304688 L 742.058594 678.863281 C 737.894531 683.027344 737.292969 689.5625 740.625 694.421875 L 743.597656 698.761719 L 742.214844 702.082031 L 737.046875 703.042969 C 731.261719 704.125 727.0625 709.175781 727.0625 715.058594 L 727.0625 718.0625 L 687.085938 718.0625 C 684.058594 718.0625 681.59375 720.523438 681.59375 723.550781 C 681.59375 726.582031 684.058594 729.042969 687.085938 729.042969 L 727.507812 729.042969 C 728.734375 733.4375 732.367188 736.894531 737.035156 737.773438 L 742.207031 738.734375 L 743.589844 742.058594 L 740.613281 746.394531 C 737.292969 751.246094 737.894531 757.789062 742.050781 761.953125 L 749.609375 769.511719 C 753.269531 773.171875 758.789062 774.078125 763.367188 771.972656 L 763.367188 818.929688 C 763.367188 820.925781 761.683594 822.621094 759.675781 822.621094 Z M 799.242188 764.425781 L 797.730469 772.523438 C 797.613281 773.136719 797.136719 773.539062 796.503906 773.539062 L 785.816406 773.539062 C 785.183594 773.539062 784.707031 773.136719 784.589844 772.523438 L 783.078125 764.425781 C 782.738281 762.59375 781.496094 761.066406 779.785156 760.359375 L 770.953125 756.699219 C 770.273438 756.417969 769.5625 756.277344 768.847656 756.277344 C 767.757812 756.277344 766.667969 756.609375 765.746094 757.238281 L 758.953125 761.898438 C 758.433594 762.253906 757.820312 762.199219 757.371094 761.75 L 749.8125 754.191406 C 749.371094 753.742188 749.308594 753.128906 749.664062 752.609375 L 754.324219 745.816406 C 755.375 744.289062 755.578125 742.332031 754.863281 740.609375 L 751.203125 731.78125 C 750.488281 730.058594 748.960938 728.824219 747.140625 728.484375 L 739.039062 726.976562 C 738.425781 726.855469 738.023438 726.378906 738.023438 725.757812 L 738.023438 715.070312 C 738.023438 714.4375 738.425781 713.960938 739.039062 713.851562 L 747.140625 712.339844 C 748.960938 712.003906 750.5 710.757812 751.203125 709.046875 L 754.863281 700.214844 C 755.578125 698.503906 755.367188 696.546875 754.324219 695.007812 L 749.664062 688.207031 C 749.308594 687.6875 749.371094 687.074219 749.8125 686.625 L 757.371094 679.066406 C 757.8125 678.625 758.433594 678.5625 758.953125 678.917969 L 765.746094 683.578125 C 767.273438 684.628906 769.230469 684.832031 770.953125 684.117188 L 779.785156 680.457031 C 781.503906 679.742188 782.738281 678.214844 783.078125 676.394531 L 784.589844 668.292969 C 784.707031 667.679688 785.183594 667.277344 785.816406 667.277344 L 796.503906 667.277344 C 797.136719 667.277344 797.613281 667.679688 797.730469 668.292969 L 799.242188 676.394531 C 799.578125 678.222656 800.824219 679.753906 802.535156 680.457031 L 811.367188 684.117188 C 813.078125 684.832031 815.035156 684.621094 816.574219 683.578125 L 823.375 678.917969 C 823.886719 678.5625 824.507812 678.625 824.957031 679.066406 L 832.515625 686.625 C 832.957031 687.0625 833.019531 687.6875 832.664062 688.207031 L 828.003906 695 C 826.953125 696.527344 826.75 698.484375 827.464844 700.207031 L 831.125 709.039062 C 831.839844 710.757812 833.367188 711.992188 835.1875 712.332031 L 843.289062 713.84375 C 843.902344 713.953125 844.304688 714.4375 844.304688 715.058594 L 844.304688 725.75 C 844.304688 726.378906 843.902344 726.855469 843.289062 726.964844 L 835.1875 728.476562 C 833.367188 728.8125 831.828125 730.058594 831.125 731.769531 L 827.464844 740.601562 C 826.75 742.3125 826.960938 744.273438 828.003906 745.808594 L 832.664062 752.601562 C 833.019531 753.121094 832.964844 753.742188 832.515625 754.183594 L 824.957031 761.742188 C 824.515625 762.183594 823.894531 762.246094 823.375 761.890625 L 816.582031 757.230469 C 815.054688 756.179688 813.097656 755.976562 811.375 756.691406 L 802.542969 760.351562 C 800.824219 761.066406 799.589844 762.59375 799.25 764.414062 Z M 662.46875 710.621094 L 651.851562 708.570312 L 646.625 699.109375 C 645.65625 697.359375 643.816406 696.269531 641.820312 696.269531 C 639.828125 696.269531 637.976562 697.359375 637.015625 699.109375 L 631.78125 708.570312 L 621.164062 710.621094 C 619.207031 710.996094 617.605469 712.414062 616.984375 714.316406 C 616.371094 716.222656 616.828125 718.308594 618.191406 719.761719 L 625.578125 727.660156 L 624.242188 738.394531 C 623.992188 740.382812 624.84375 742.339844 626.464844 743.511719 C 627.417969 744.207031 628.550781 744.566406 629.695312 744.566406 C 630.480469 744.566406 631.277344 744.390625 632.019531 744.042969 L 641.8125 739.457031 L 651.605469 744.042969 C 653.417969 744.894531 655.539062 744.683594 657.160156 743.511719 C 658.78125 742.339844 659.628906 740.375 659.382812 738.394531 L 658.046875 727.660156 L 665.433594 719.761719 C 666.796875 718.308594 667.261719 716.210938 666.640625 714.316406 C 666.019531 712.414062 664.417969 711.003906 662.457031 710.621094 Z M 648.28125 722.03125 C 647.167969 723.222656 646.644531 724.84375 646.847656 726.460938 L 647.265625 729.886719 L 644.144531 728.421875 C 642.671875 727.734375 640.96875 727.734375 639.488281 728.421875 L 636.367188 729.886719 L 636.789062 726.460938 C 636.988281 724.84375 636.457031 723.222656 635.351562 722.03125 L 633 719.515625 L 636.386719 718.867188 C 637.988281 718.554688 639.359375 717.558594 640.148438 716.128906 L 641.8125 713.109375 L 643.476562 716.128906 C 644.265625 717.558594 645.648438 718.554688 647.25 718.867188 L 650.632812 719.515625 Z M 681.59375 660.039062 C 681.59375 657.011719 684.058594 654.546875 687.085938 654.546875 L 744.402344 654.546875 C 747.433594 654.546875 749.894531 657.011719 749.894531 660.039062 C 749.894531 663.066406 747.433594 665.53125 744.402344 665.53125 L 687.085938 665.53125 C 684.058594 665.53125 681.59375 663.066406 681.59375 660.039062 Z M 625.578125 667.289062 L 624.242188 678.023438 C 623.992188 680.007812 624.84375 681.964844 626.464844 683.136719 C 628.085938 684.308594 630.207031 684.519531 632.019531 683.667969 L 641.8125 679.082031 L 651.605469 683.667969 C 652.347656 684.015625 653.140625 684.191406 653.929688 684.191406 C 655.074219 684.191406 656.199219 683.832031 657.160156 683.136719 C 658.78125 681.964844 659.628906 680 659.382812 678.023438 L 658.046875 667.289062 L 665.433594 659.390625 C 666.796875 657.933594 667.261719 655.839844 666.640625 653.945312 C 666.027344 652.039062 664.417969 650.632812 662.457031 650.246094 L 651.84375 648.195312 L 646.617188 638.734375 C 645.648438 636.984375 643.808594 635.898438 641.8125 635.898438 C 639.816406 635.898438 637.96875 636.984375 637.007812 638.734375 L 631.773438 648.195312 L 621.15625 650.246094 C 619.199219 650.621094 617.597656 652.039062 616.972656 653.945312 C 616.351562 655.847656 616.820312 657.933594 618.183594 659.390625 L 625.566406 667.289062 Z M 636.386719 658.492188 C 637.988281 658.179688 639.359375 657.183594 640.148438 655.757812 L 641.8125 652.734375 L 643.476562 655.757812 C 644.265625 657.183594 645.648438 658.179688 647.25 658.492188 L 650.632812 659.140625 L 648.28125 661.660156 C 647.175781 662.847656 646.644531 664.46875 646.847656 666.089844 L 647.265625 669.511719 L 644.144531 668.046875 C 642.671875 667.359375 640.96875 667.359375 639.488281 668.046875 L 636.367188 669.511719 L 636.789062 666.089844 C 636.988281 664.46875 636.457031 662.847656 635.351562 661.660156 L 633 659.140625 Z M 749.894531 780.789062 C 749.894531 783.816406 747.433594 786.277344 744.402344 786.277344 L 687.085938 786.277344 C 684.058594 786.277344 681.59375 783.816406 681.59375 780.789062 C 681.59375 777.757812 684.058594 775.296875 687.085938 775.296875 L 744.402344 775.296875 C 747.433594 775.296875 749.894531 777.757812 749.894531 780.789062 Z M 662.46875 770.996094 L 651.851562 768.945312 L 646.625 759.480469 C 645.65625 757.734375 643.816406 756.644531 641.820312 756.644531 C 639.828125 756.644531 637.976562 757.734375 637.015625 759.480469 L 631.78125 768.945312 L 621.164062 770.996094 C 619.207031 771.371094 617.605469 772.789062 616.984375 774.691406 C 616.359375 776.59375 616.828125 778.683594 618.191406 780.136719 L 625.578125 788.035156 L 624.242188 798.769531 C 623.992188 800.757812 624.84375 802.714844 626.464844 803.886719 C 627.417969 804.582031 628.550781 804.9375 629.695312 804.9375 C 630.480469 804.9375 631.277344 804.765625 632.019531 804.417969 L 641.8125 799.832031 L 651.605469 804.417969 C 653.417969 805.257812 655.539062 805.058594 657.160156 803.886719 C 658.78125 802.714844 659.628906 800.746094 659.382812 798.769531 L 658.046875 788.035156 L 665.433594 780.136719 C 666.796875 778.683594 667.261719 776.585938 666.640625 774.691406 C 666.027344 772.789062 664.425781 771.378906 662.457031 770.996094 Z M 648.28125 782.40625 C 647.167969 783.597656 646.644531 785.214844 646.847656 786.835938 L 647.265625 790.257812 L 644.144531 788.792969 C 642.671875 788.109375 640.96875 788.109375 639.488281 788.792969 L 636.367188 790.257812 L 636.789062 786.835938 C 636.988281 785.214844 636.457031 783.597656 635.351562 782.40625 L 633 779.890625 L 636.386719 779.242188 C 637.988281 778.929688 639.359375 777.933594 640.148438 776.503906 L 641.8125 773.484375 L 643.476562 776.503906 C 644.265625 777.933594 645.648438 778.929688 647.25 779.242188 L 650.632812 779.890625 Z M 648.28125 782.40625 " fill-opacity="1" fill-rule="nonzero"/></g></g></g></svg>