<svg xmlns="http://www.w3.org/2000/svg" xmlns:xlink="http://www.w3.org/1999/xlink" width="2000" zoomAndPan="magnify" viewBox="0 0 1500 1499.999933" height="2000" preserveAspectRatio="xMidYMid meet" version="1.0"><defs><g/><clipPath id="5081ab1752"><path d="M 88 89 L 514 89 L 514 515 L 88 515 Z M 88 89 " clip-rule="nonzero"/></clipPath><clipPath id="e15ee673d0"><path d="M 0.00390625 301.996094 L 300.96875 1.027344 L 601.933594 301.996094 L 300.96875 602.960938 Z M 0.00390625 301.996094 " clip-rule="nonzero"/></clipPath><clipPath id="5589af46c7"><path d="M 150.484375 151.511719 C 67.375 234.621094 67.375 369.367188 150.484375 452.476562 C 233.59375 535.585938 368.339844 535.585938 451.449219 452.476562 C 534.558594 369.367188 534.558594 234.621094 451.449219 151.511719 C 368.339844 68.402344 233.59375 68.402344 150.484375 151.511719 Z M 150.484375 151.511719 " clip-rule="nonzero"/></clipPath><clipPath id="33fdd8d4e3"><path d="M 0 0 L 426 0 L 426 426 L 0 426 Z M 0 0 " clip-rule="nonzero"/></clipPath><clipPath id="4ec8d77f72"><path d="M -87.996094 212.996094 L 212.96875 -87.972656 L 513.933594 212.996094 L 212.96875 513.960938 Z M -87.996094 212.996094 " clip-rule="nonzero"/></clipPath><clipPath id="58bf46ad76"><path d="M 62.484375 62.511719 C -20.625 145.621094 -20.625 280.367188 62.484375 363.476562 C 145.59375 446.585938 280.339844 446.585938 363.449219 363.476562 C 446.558594 280.367188 446.558594 145.621094 363.449219 62.511719 C 280.339844 -20.597656 145.59375 -20.597656 62.484375 62.511719 Z M 62.484375 62.511719 " clip-rule="nonzero"/></clipPath><clipPath id="2c0d792d85"><rect x="0" width="426" y="0" height="426"/></clipPath><clipPath id="fdba05bfeb"><path d="M 152 153 L 450 153 L 450 451 L 152 451 Z M 152 153 " clip-rule="nonzero"/></clipPath><clipPath id="af68680505"><path d="M 90.605469 301.996094 L 300.96875 91.632812 L 511.332031 301.996094 L 300.96875 512.359375 Z M 90.605469 301.996094 " clip-rule="nonzero"/></clipPath><clipPath id="46014d232e"><path d="M 195.785156 196.8125 C 137.695312 254.902344 137.695312 349.085938 195.785156 407.175781 C 253.875 465.265625 348.058594 465.265625 406.148438 407.175781 C 464.238281 349.085938 464.238281 254.902344 406.148438 196.8125 C 348.058594 138.722656 253.875 138.722656 195.785156 196.8125 Z M 195.785156 196.8125 " clip-rule="nonzero"/></clipPath><clipPath id="2463927dd9"><path d="M 0 0 L 298 0 L 298 298 L 0 298 Z M 0 0 " clip-rule="nonzero"/></clipPath><clipPath id="ec98b3627b"><path d="M -61.394531 148.996094 L 148.96875 -61.367188 L 359.332031 148.996094 L 148.96875 359.359375 Z M -61.394531 148.996094 " clip-rule="nonzero"/></clipPath><clipPath id="645968d13b"><path d="M 43.785156 43.8125 C -14.304688 101.902344 -14.304688 196.085938 43.785156 254.175781 C 101.875 312.265625 196.058594 312.265625 254.148438 254.175781 C 312.238281 196.085938 312.238281 101.902344 254.148438 43.8125 C 196.058594 -14.277344 101.875 -14.277344 43.785156 43.8125 Z M 43.785156 43.8125 " clip-rule="nonzero"/></clipPath><clipPath id="0869c6a084"><rect x="0" width="298" y="0" height="298"/></clipPath><clipPath id="0b36399732"><path d="M 102 103 L 500 103 L 500 501 L 102 501 Z M 102 103 " clip-rule="nonzero"/></clipPath><clipPath id="32413f459f"><path d="M 102.167969 450.429688 L 449.398438 103.199219 L 499.761719 153.5625 L 152.53125 500.792969 Z M 102.167969 450.429688 " clip-rule="nonzero"/></clipPath><clipPath id="a469b7f743"><path d="M 0 0.0390625 L 397.921875 0.0390625 L 397.921875 397.960938 L 0 397.960938 Z M 0 0.0390625 " clip-rule="nonzero"/></clipPath><clipPath id="453d1d5f3f"><path d="M 0.167969 347.429688 L 347.398438 0.199219 L 397.761719 50.5625 L 50.53125 397.792969 Z M 0.167969 347.429688 " clip-rule="nonzero"/></clipPath><clipPath id="71f4ec6762"><rect x="0" width="398" y="0" height="398"/></clipPath><clipPath id="33a158e8d5"><path d="M 102 103 L 500 103 L 500 501 L 102 501 Z M 102 103 " clip-rule="nonzero"/></clipPath><clipPath id="c5c8b7094c"><path d="M 449.386719 500.792969 L 102.15625 153.5625 L 152.523438 103.199219 L 499.753906 450.429688 Z M 449.386719 500.792969 " clip-rule="nonzero"/></clipPath><clipPath id="dffe058381"><path d="M 0 0.0390625 L 397.921875 0.0390625 L 397.921875 397.960938 L 0 397.960938 Z M 0 0.0390625 " clip-rule="nonzero"/></clipPath><clipPath id="6b9bea09d0"><path d="M 347.386719 397.792969 L 0.15625 50.5625 L 50.523438 0.199219 L 397.753906 347.429688 Z M 347.386719 397.792969 " clip-rule="nonzero"/></clipPath><clipPath id="32f707b7b7"><rect x="0" width="398" y="0" height="398"/></clipPath><clipPath id="35b5665055"><path d="M 205.667969 216.859375 L 395.882812 216.859375 L 395.882812 407.078125 L 205.667969 407.078125 Z M 205.667969 216.859375 " clip-rule="nonzero"/></clipPath><clipPath id="8597be4bab"><rect x="0" width="793" y="0" height="162"/></clipPath><clipPath id="b299798f70"><path d="M 548 337 L 1483.199219 337 L 1483.199219 404 L 548 404 Z M 548 337 " clip-rule="nonzero"/></clipPath><clipPath id="6853cedb82"><rect x="0" width="936" y="0" height="67"/></clipPath><clipPath id="2bb1c62f33"><rect x="0" width="1484" y="0" height="604"/></clipPath></defs><g transform="matrix(1, 0, 0, 1, 0, 448)"><g clip-path="url(#2bb1c62f33)"><g clip-path="url(#5081ab1752)"><g clip-path="url(#e15ee673d0)"><g clip-path="url(#5589af46c7)"><g transform="matrix(1, 0, 0, 1, 88, 89)"><g clip-path="url(#2c0d792d85)"><g clip-path="url(#33fdd8d4e3)"><g clip-path="url(#4ec8d77f72)"><g clip-path="url(#58bf46ad76)"><path fill="#00a6f4" d="M -87.996094 212.996094 L 212.96875 -87.972656 L 513.933594 212.996094 L 212.96875 513.960938 Z M -87.996094 212.996094 " fill-opacity="1" fill-rule="nonzero"/></g></g></g></g></g></g></g></g><g clip-path="url(#fdba05bfeb)"><g clip-path="url(#af68680505)"><g clip-path="url(#46014d232e)"><g transform="matrix(1, 0, 0, 1, 152, 153)"><g clip-path="url(#0869c6a084)"><g clip-path="url(#2463927dd9)"><g clip-path="url(#ec98b3627b)"><g clip-path="url(#645968d13b)"><path fill="#ffffff" d="M -61.394531 148.996094 L 148.96875 -61.367188 L 359.332031 148.996094 L 148.96875 359.359375 Z M -61.394531 148.996094 " fill-opacity="1" fill-rule="nonzero"/></g></g></g></g></g></g></g></g><g clip-path="url(#0b36399732)"><g clip-path="url(#32413f459f)"><g transform="matrix(1, 0, 0, 1, 102, 103)"><g clip-path="url(#71f4ec6762)"><g clip-path="url(#a469b7f743)"><g clip-path="url(#453d1d5f3f)"><path fill="#ffffff" d="M 0.167969 347.429688 L 347.40625 0.191406 L 397.769531 50.554688 L 50.53125 397.792969 Z M 0.167969 347.429688 " fill-opacity="1" fill-rule="nonzero"/></g></g></g></g></g></g><g clip-path="url(#33a158e8d5)"><g clip-path="url(#c5c8b7094c)"><g transform="matrix(1, 0, 0, 1, 102, 103)"><g clip-path="url(#32f707b7b7)"><g clip-path="url(#dffe058381)"><g clip-path="url(#6b9bea09d0)"><path fill="#ffffff" d="M 347.386719 397.792969 L 0.152344 50.554688 L 50.515625 0.191406 L 397.753906 347.429688 Z M 347.386719 397.792969 " fill-opacity="1" fill-rule="nonzero"/></g></g></g></g></g></g><g clip-path="url(#35b5665055)"><path fill="#000000" d="M 339.613281 387.601562 C 337.507812 383.949219 333.132812 382.421875 329.207031 383.972656 C 320.160156 387.550781 310.59375 389.363281 300.773438 389.363281 C 280.894531 389.363281 262.15625 381.917969 247.746094 368.347656 L 248.617188 367.476562 C 250.1875 365.90625 250.636719 363.65625 249.792969 361.601562 C 248.941406 359.550781 247.035156 358.265625 244.820312 358.257812 L 230.453125 358.207031 L 230.433594 358.207031 C 228.96875 358.207031 227.652344 358.757812 226.617188 359.789062 C 225.578125 360.832031 225.03125 362.160156 225.035156 363.628906 L 225.085938 377.996094 C 225.09375 380.21875 226.378906 382.125 228.429688 382.96875 C 230.484375 383.816406 232.734375 383.367188 234.304688 381.792969 L 235.21875 380.878906 C 252.976562 397.792969 276.160156 407.085938 300.773438 407.085938 C 312.890625 407.085938 324.691406 404.839844 335.851562 400.40625 C 338.140625 399.5 339.914062 397.652344 340.714844 395.34375 C 341.519531 393.035156 341.273438 390.484375 340.039062 388.351562 L 339.613281 387.609375 Z M 336.246094 393.777344 C 335.890625 394.804688 335.128906 395.589844 334.101562 395.996094 C 323.5 400.207031 312.285156 402.335938 300.773438 402.335938 C 276.632812 402.335938 253.941406 392.9375 236.871094 375.867188 C 236.425781 375.421875 235.824219 375.171875 235.199219 375.171875 C 234.570312 375.171875 233.964844 375.421875 233.523438 375.867188 L 230.960938 378.433594 C 230.75 378.644531 230.507812 378.691406 230.234375 378.578125 C 229.960938 378.46875 229.824219 378.261719 229.824219 377.96875 L 229.769531 363.601562 C 229.769531 363.398438 229.820312 363.277344 229.964844 363.128906 C 230.109375 362.984375 230.214844 362.925781 230.4375 362.9375 L 244.804688 362.988281 C 245.097656 362.988281 245.304688 363.125 245.414062 363.398438 C 245.523438 363.671875 245.476562 363.914062 245.269531 364.125 L 242.699219 366.691406 C 241.777344 367.617188 241.777344 369.117188 242.699219 370.039062 C 258.214844 385.554688 278.835938 394.097656 300.773438 394.097656 C 311.191406 394.097656 321.34375 392.171875 330.949219 388.375 C 332.667969 387.695312 334.585938 388.363281 335.511719 389.964844 L 335.9375 390.707031 C 336.488281 391.660156 336.597656 392.75 336.242188 393.777344 Z M 369.679688 377.527344 C 386.59375 359.765625 395.882812 336.582031 395.882812 311.96875 C 395.882812 299.855469 393.636719 288.054688 389.203125 276.894531 C 388.296875 274.605469 386.449219 272.832031 384.140625 272.027344 C 381.832031 271.222656 379.285156 271.472656 377.148438 272.703125 L 376.40625 273.128906 C 372.757812 275.234375 371.230469 279.613281 372.78125 283.535156 C 376.355469 292.585938 378.171875 302.148438 378.171875 311.96875 C 378.171875 331.851562 370.722656 350.589844 357.152344 364.996094 L 356.285156 364.128906 C 354.714844 362.558594 352.460938 362.105469 350.402344 362.953125 C 348.351562 363.800781 347.070312 365.707031 347.0625 367.929688 L 347.011719 382.289062 C 347.007812 383.761719 347.550781 385.085938 348.59375 386.128906 C 349.625 387.164062 350.949219 387.710938 352.410156 387.710938 L 352.429688 387.710938 L 366.792969 387.660156 C 369.015625 387.652344 370.921875 386.371094 371.765625 384.316406 C 372.613281 382.261719 372.160156 380.011719 370.589844 378.441406 Z M 367.390625 382.511719 C 367.277344 382.78125 367.070312 382.921875 366.777344 382.921875 L 352.414062 382.972656 C 352.199219 382.980469 352.085938 382.925781 351.9375 382.773438 C 351.792969 382.628906 351.742188 382.511719 351.746094 382.300781 L 351.796875 367.9375 C 351.796875 367.640625 351.933594 367.433594 352.207031 367.324219 C 352.300781 367.285156 352.394531 367.265625 352.484375 367.265625 C 352.648438 367.265625 352.800781 367.332031 352.933594 367.46875 L 355.503906 370.035156 C 356.425781 370.960938 357.925781 370.960938 358.851562 370.035156 C 374.367188 354.523438 382.910156 333.898438 382.910156 311.960938 C 382.910156 301.542969 380.984375 291.390625 377.1875 281.785156 C 376.507812 280.066406 377.175781 278.148438 378.777344 277.226562 L 379.519531 276.796875 C 380.476562 276.246094 381.566406 276.140625 382.589844 276.496094 C 383.617188 276.851562 384.402344 277.613281 384.808594 278.632812 C 389.019531 289.238281 391.152344 300.449219 391.152344 311.960938 C 391.152344 336.101562 381.75 358.796875 364.683594 375.863281 C 364.238281 376.304688 363.988281 376.910156 363.988281 377.539062 C 363.988281 378.164062 364.234375 378.769531 364.683594 379.210938 L 367.25 381.78125 C 367.460938 381.988281 367.507812 382.230469 367.398438 382.503906 Z M 261.933594 236.335938 C 264.042969 239.988281 268.417969 241.515625 272.339844 239.964844 C 281.390625 236.386719 290.957031 234.574219 300.773438 234.574219 C 320.65625 234.574219 339.394531 242.019531 353.800781 255.589844 L 352.933594 256.460938 C 351.363281 258.03125 350.914062 260.28125 351.757812 262.335938 C 352.605469 264.390625 354.511719 265.671875 356.730469 265.679688 L 371.09375 265.730469 L 371.113281 265.730469 C 372.578125 265.730469 373.898438 265.179688 374.929688 264.148438 C 375.972656 263.105469 376.515625 261.777344 376.511719 260.308594 L 376.460938 245.941406 C 376.453125 243.71875 375.171875 241.8125 373.121094 240.964844 C 371.066406 240.121094 368.8125 240.570312 367.242188 242.140625 L 366.332031 243.054688 C 348.574219 226.140625 325.386719 216.847656 300.773438 216.847656 C 288.664062 216.847656 276.859375 219.09375 265.699219 223.527344 C 263.410156 224.433594 261.632812 226.28125 260.832031 228.589844 C 260.03125 230.898438 260.277344 233.449219 261.507812 235.582031 L 261.933594 236.324219 Z M 265.304688 230.160156 C 265.660156 229.132812 266.421875 228.347656 267.445312 227.941406 C 278.046875 223.730469 289.257812 221.601562 300.769531 221.601562 C 324.910156 221.601562 347.601562 231 364.675781 248.070312 C 365.597656 248.992188 367.097656 248.992188 368.023438 248.070312 L 370.59375 245.503906 C 370.804688 245.292969 371.046875 245.246094 371.320312 245.359375 C 371.59375 245.472656 371.730469 245.675781 371.730469 245.96875 L 371.78125 260.335938 C 371.78125 260.539062 371.734375 260.660156 371.589844 260.808594 C 371.441406 260.953125 371.324219 261 371.117188 261 L 371.113281 261 L 356.75 260.949219 C 356.453125 260.949219 356.25 260.8125 356.136719 260.539062 C 356.027344 260.265625 356.074219 260.023438 356.285156 259.816406 L 358.851562 257.253906 C 359.296875 256.804688 359.546875 256.207031 359.546875 255.578125 C 359.546875 254.953125 359.300781 254.347656 358.851562 253.90625 C 343.339844 238.394531 322.714844 229.847656 300.777344 229.847656 C 290.359375 229.847656 280.210938 231.773438 270.605469 235.570312 C 268.882812 236.25 266.964844 235.582031 266.042969 233.980469 L 265.617188 233.238281 C 265.0625 232.285156 264.957031 231.195312 265.3125 230.167969 Z M 228.769531 340.402344 C 225.195312 331.351562 223.378906 321.789062 223.378906 311.96875 C 223.378906 292.085938 230.824219 273.347656 244.398438 258.941406 L 245.265625 259.808594 C 246.835938 261.378906 249.089844 261.832031 251.140625 260.984375 C 253.195312 260.136719 254.476562 258.230469 254.484375 256.007812 L 254.535156 241.648438 C 254.539062 240.175781 253.996094 238.851562 252.953125 237.808594 C 251.917969 236.773438 250.597656 236.226562 249.136719 236.226562 L 249.117188 236.226562 L 234.75 236.277344 C 232.53125 236.285156 230.625 237.566406 229.78125 239.621094 C 228.929688 241.675781 229.378906 243.925781 230.957031 245.496094 L 231.867188 246.40625 C 214.953125 264.171875 205.667969 287.355469 205.667969 311.96875 C 205.667969 324.082031 207.914062 335.882812 212.34375 347.042969 C 213.253906 349.332031 215.097656 351.109375 217.40625 351.910156 C 218.304688 352.222656 219.234375 352.375 220.160156 352.375 C 221.628906 352.375 223.09375 351.992188 224.402344 351.234375 L 225.140625 350.808594 C 228.792969 348.703125 230.320312 344.324219 228.769531 340.402344 Z M 222.773438 346.707031 L 222.03125 347.136719 C 221.078125 347.6875 219.988281 347.792969 218.960938 347.4375 C 217.9375 347.082031 217.152344 346.320312 216.746094 345.300781 C 212.535156 334.695312 210.402344 323.484375 210.402344 311.972656 C 210.402344 287.832031 219.804688 265.136719 236.871094 248.070312 C 237.792969 247.144531 237.792969 245.644531 236.871094 244.722656 L 234.300781 242.152344 C 234.09375 241.945312 234.046875 241.703125 234.15625 241.429688 C 234.265625 241.160156 234.476562 241.019531 234.765625 241.019531 L 249.132812 240.96875 L 249.136719 240.96875 C 249.339844 240.96875 249.460938 241.019531 249.605469 241.164062 C 249.75 241.308594 249.804688 241.425781 249.800781 241.636719 L 249.746094 255.996094 C 249.746094 256.292969 249.609375 256.5 249.335938 256.613281 C 249.066406 256.722656 248.820312 256.675781 248.613281 256.46875 L 246.042969 253.902344 C 245.117188 252.976562 243.621094 252.976562 242.691406 253.902344 C 227.179688 269.414062 218.636719 290.039062 218.636719 311.976562 C 218.636719 322.394531 220.5625 332.550781 224.355469 342.152344 C 225.035156 343.871094 224.367188 345.789062 222.765625 346.710938 Z M 354.039062 311.96875 C 354.039062 305.015625 348.378906 299.355469 341.425781 299.355469 C 334.472656 299.355469 328.8125 305.015625 328.8125 311.96875 C 328.8125 318.921875 334.472656 324.582031 341.425781 324.582031 C 348.378906 324.582031 354.039062 318.921875 354.039062 311.96875 Z M 341.429688 319.84375 C 337.089844 319.84375 333.554688 316.3125 333.554688 311.96875 C 333.554688 307.625 337.085938 304.089844 341.429688 304.089844 C 345.773438 304.089844 349.308594 307.625 349.308594 311.96875 C 349.308594 316.3125 345.773438 319.84375 341.429688 319.84375 Z M 348.917969 335.308594 L 349.332031 333.078125 L 350.761719 332.480469 L 352.632812 333.765625 C 354.726562 335.199219 357.546875 334.9375 359.34375 333.144531 L 362.601562 329.886719 C 364.398438 328.089844 364.660156 325.273438 363.222656 323.175781 L 361.9375 321.304688 L 362.535156 319.875 L 364.765625 319.457031 C 367.257812 318.992188 369.070312 316.816406 369.070312 314.277344 L 369.070312 309.667969 C 369.070312 307.128906 367.257812 304.953125 364.765625 304.488281 L 362.535156 304.070312 L 361.9375 302.640625 L 363.222656 300.769531 C 364.660156 298.675781 364.394531 295.855469 362.601562 294.058594 L 359.34375 290.800781 C 357.546875 289.003906 354.726562 288.746094 352.632812 290.179688 L 350.761719 291.464844 L 349.328125 290.867188 L 348.914062 288.636719 C 348.445312 286.144531 346.269531 284.332031 343.730469 284.332031 L 339.121094 284.332031 C 336.882812 284.332031 334.925781 285.742188 334.175781 287.78125 L 334.175781 269.488281 C 334.175781 266 331.339844 263.164062 327.851562 263.164062 L 261.976562 263.164062 C 258.488281 263.164062 255.652344 266 255.652344 269.488281 L 255.652344 354.464844 C 255.652344 357.953125 258.488281 360.789062 261.976562 360.789062 L 327.851562 360.789062 C 331.339844 360.789062 334.175781 357.953125 334.175781 354.464844 L 334.175781 336.171875 C 334.925781 338.210938 336.882812 339.621094 339.121094 339.621094 L 343.730469 339.621094 C 346.269531 339.621094 348.445312 337.808594 348.914062 335.316406 Z M 327.855469 356.046875 L 261.980469 356.046875 C 261.121094 356.046875 260.390625 355.320312 260.390625 354.457031 L 260.390625 269.480469 C 260.390625 268.621094 261.117188 267.890625 261.980469 267.890625 L 327.855469 267.890625 C 328.714844 267.890625 329.445312 268.617188 329.445312 269.480469 L 329.445312 289.730469 C 327.472656 288.820312 325.09375 289.210938 323.511719 290.792969 L 320.253906 294.050781 C 318.457031 295.847656 318.199219 298.664062 319.632812 300.761719 L 320.917969 302.632812 L 320.320312 304.0625 L 318.089844 304.480469 C 315.597656 304.945312 313.785156 307.121094 313.785156 309.660156 L 313.785156 310.953125 L 296.546875 310.953125 C 295.242188 310.953125 294.179688 312.015625 294.179688 313.324219 C 294.179688 314.628906 295.242188 315.691406 296.546875 315.691406 L 313.980469 315.691406 C 314.507812 317.585938 316.074219 319.074219 318.085938 319.453125 L 320.316406 319.871094 L 320.914062 321.300781 L 319.628906 323.171875 C 318.199219 325.265625 318.457031 328.085938 320.25 329.882812 L 323.507812 333.140625 C 325.089844 334.71875 327.46875 335.109375 329.441406 334.203125 L 329.441406 354.453125 C 329.441406 355.3125 328.714844 356.042969 327.851562 356.042969 Z M 344.910156 330.945312 L 344.257812 334.4375 C 344.207031 334.703125 344.003906 334.878906 343.730469 334.878906 L 339.121094 334.878906 C 338.847656 334.878906 338.644531 334.703125 338.59375 334.4375 L 337.941406 330.945312 C 337.796875 330.15625 337.257812 329.5 336.519531 329.195312 L 332.710938 327.617188 C 332.421875 327.492188 332.113281 327.433594 331.804688 327.433594 C 331.335938 327.433594 330.867188 327.578125 330.46875 327.847656 L 327.539062 329.859375 C 327.3125 330.011719 327.050781 329.988281 326.855469 329.792969 L 323.597656 326.535156 C 323.40625 326.339844 323.378906 326.078125 323.535156 325.851562 L 325.542969 322.925781 C 325.996094 322.265625 326.082031 321.421875 325.773438 320.679688 L 324.195312 316.871094 C 323.886719 316.128906 323.230469 315.59375 322.445312 315.449219 L 318.953125 314.796875 C 318.6875 314.746094 318.511719 314.542969 318.511719 314.273438 L 318.511719 309.664062 C 318.511719 309.390625 318.6875 309.1875 318.953125 309.140625 L 322.445312 308.488281 C 323.230469 308.34375 323.890625 307.804688 324.195312 307.066406 L 325.773438 303.257812 C 326.082031 302.519531 325.992188 301.675781 325.542969 301.011719 L 323.535156 298.082031 C 323.378906 297.855469 323.40625 297.59375 323.597656 297.398438 L 326.855469 294.140625 C 327.046875 293.949219 327.3125 293.921875 327.539062 294.074219 L 330.46875 296.085938 C 331.125 296.539062 331.96875 296.625 332.710938 296.316406 L 336.519531 294.738281 C 337.261719 294.429688 337.796875 293.773438 337.941406 292.988281 L 338.59375 289.496094 C 338.644531 289.230469 338.847656 289.054688 339.121094 289.054688 L 343.730469 289.054688 C 344.003906 289.054688 344.207031 289.230469 344.257812 289.496094 L 344.910156 292.988281 C 345.058594 293.777344 345.59375 294.433594 346.332031 294.738281 L 350.140625 296.316406 C 350.878906 296.625 351.722656 296.535156 352.386719 296.085938 L 355.316406 294.074219 C 355.539062 293.921875 355.808594 293.949219 356 294.140625 L 359.261719 297.398438 C 359.449219 297.589844 359.476562 297.855469 359.324219 298.082031 L 357.3125 301.007812 C 356.859375 301.667969 356.773438 302.511719 357.082031 303.253906 L 358.660156 307.0625 C 358.96875 307.804688 359.625 308.339844 360.414062 308.484375 L 363.90625 309.136719 C 364.167969 309.183594 364.34375 309.390625 364.34375 309.660156 L 364.34375 314.269531 C 364.34375 314.542969 364.167969 314.746094 363.90625 314.792969 L 360.414062 315.445312 C 359.625 315.589844 358.964844 316.128906 358.660156 316.867188 L 357.082031 320.675781 C 356.773438 321.414062 356.863281 322.257812 357.3125 322.917969 L 359.324219 325.847656 C 359.476562 326.074219 359.453125 326.339844 359.261719 326.53125 L 356 329.789062 C 355.8125 329.980469 355.542969 330.007812 355.316406 329.855469 L 352.390625 327.84375 C 351.730469 327.390625 350.886719 327.304688 350.144531 327.613281 L 346.335938 329.191406 C 345.59375 329.5 345.0625 330.15625 344.914062 330.941406 Z M 285.933594 307.746094 L 281.355469 306.863281 L 279.101562 302.78125 C 278.683594 302.027344 277.890625 301.558594 277.027344 301.558594 C 276.167969 301.558594 275.371094 302.027344 274.957031 302.78125 L 272.699219 306.863281 L 268.121094 307.746094 C 267.277344 307.90625 266.585938 308.519531 266.320312 309.339844 C 266.054688 310.160156 266.25 311.0625 266.839844 311.6875 L 270.023438 315.09375 L 269.449219 319.722656 C 269.339844 320.578125 269.707031 321.425781 270.40625 321.929688 C 270.816406 322.230469 271.308594 322.382812 271.800781 322.382812 C 272.140625 322.382812 272.484375 322.308594 272.800781 322.160156 L 277.023438 320.179688 L 281.246094 322.160156 C 282.027344 322.523438 282.945312 322.433594 283.644531 321.929688 C 284.34375 321.425781 284.707031 320.574219 284.601562 319.722656 L 284.027344 315.09375 L 287.210938 311.6875 C 287.800781 311.0625 288 310.15625 287.730469 309.339844 C 287.464844 308.519531 286.773438 307.910156 285.929688 307.746094 Z M 279.816406 312.667969 C 279.332031 313.179688 279.109375 313.878906 279.195312 314.578125 L 279.378906 316.054688 L 278.03125 315.421875 C 277.394531 315.125 276.664062 315.125 276.023438 315.421875 L 274.675781 316.054688 L 274.859375 314.578125 C 274.945312 313.878906 274.714844 313.179688 274.238281 312.667969 L 273.226562 311.582031 L 274.683594 311.300781 C 275.375 311.167969 275.96875 310.738281 276.308594 310.121094 L 277.023438 308.820312 L 277.742188 310.121094 C 278.082031 310.738281 278.679688 311.167969 279.371094 311.300781 L 280.828125 311.582031 Z M 294.179688 285.933594 C 294.179688 284.628906 295.242188 283.566406 296.546875 283.566406 L 321.265625 283.566406 C 322.570312 283.566406 323.632812 284.628906 323.632812 285.933594 C 323.632812 287.242188 322.570312 288.300781 321.265625 288.300781 L 296.546875 288.300781 C 295.242188 288.300781 294.179688 287.242188 294.179688 285.933594 Z M 270.023438 289.058594 L 269.449219 293.6875 C 269.339844 294.546875 269.707031 295.390625 270.40625 295.894531 C 271.105469 296.398438 272.019531 296.492188 272.800781 296.125 L 277.023438 294.148438 L 281.246094 296.125 C 281.566406 296.273438 281.910156 296.347656 282.25 296.347656 C 282.742188 296.347656 283.230469 296.195312 283.644531 295.894531 C 284.34375 295.390625 284.707031 294.542969 284.601562 293.6875 L 284.027344 289.058594 L 287.210938 285.65625 C 287.800781 285.027344 288 284.125 287.730469 283.304688 C 287.46875 282.484375 286.773438 281.878906 285.929688 281.710938 L 281.351562 280.828125 L 279.097656 276.746094 C 278.679688 275.992188 277.886719 275.523438 277.023438 275.523438 C 276.164062 275.523438 275.367188 275.992188 274.953125 276.746094 L 272.695312 280.828125 L 268.117188 281.710938 C 267.273438 281.875 266.582031 282.484375 266.316406 283.304688 C 266.046875 284.128906 266.246094 285.027344 266.835938 285.65625 L 270.019531 289.058594 Z M 274.683594 285.269531 C 275.375 285.132812 275.96875 284.703125 276.308594 284.085938 L 277.023438 282.785156 L 277.742188 284.085938 C 278.082031 284.703125 278.679688 285.132812 279.371094 285.269531 L 280.828125 285.546875 L 279.816406 286.632812 C 279.335938 287.144531 279.109375 287.84375 279.195312 288.542969 L 279.378906 290.019531 L 278.03125 289.386719 C 277.394531 289.089844 276.664062 289.089844 276.023438 289.386719 L 274.675781 290.019531 L 274.859375 288.542969 C 274.945312 287.84375 274.714844 287.144531 274.238281 286.632812 L 273.226562 285.546875 Z M 323.632812 338.003906 C 323.632812 339.308594 322.570312 340.371094 321.265625 340.371094 L 296.546875 340.371094 C 295.242188 340.371094 294.179688 339.308594 294.179688 338.003906 C 294.179688 336.695312 295.242188 335.636719 296.546875 335.636719 L 321.265625 335.636719 C 322.570312 335.636719 323.632812 336.695312 323.632812 338.003906 Z M 285.933594 333.78125 L 281.355469 332.894531 L 279.101562 328.816406 C 278.683594 328.0625 277.890625 327.59375 277.027344 327.59375 C 276.167969 327.59375 275.371094 328.0625 274.957031 328.816406 L 272.699219 332.894531 L 268.121094 333.78125 C 267.277344 333.941406 266.585938 334.554688 266.320312 335.375 C 266.050781 336.195312 266.25 337.09375 266.839844 337.722656 L 270.023438 341.128906 L 269.449219 345.757812 C 269.339844 346.613281 269.707031 347.457031 270.40625 347.964844 C 270.816406 348.261719 271.308594 348.417969 271.800781 348.417969 C 272.140625 348.417969 272.484375 348.34375 272.800781 348.191406 L 277.023438 346.214844 L 281.246094 348.191406 C 282.027344 348.554688 282.945312 348.46875 283.644531 347.964844 C 284.34375 347.457031 284.707031 346.609375 284.601562 345.757812 L 284.027344 341.128906 L 287.210938 337.722656 C 287.800781 337.09375 288 336.191406 287.730469 335.375 C 287.46875 334.554688 286.777344 333.945312 285.929688 333.78125 Z M 279.816406 338.703125 C 279.332031 339.214844 279.109375 339.914062 279.195312 340.613281 L 279.378906 342.085938 L 278.03125 341.457031 C 277.394531 341.160156 276.664062 341.160156 276.023438 341.457031 L 274.675781 342.085938 L 274.859375 340.613281 C 274.945312 339.914062 274.714844 339.214844 274.238281 338.703125 L 273.226562 337.617188 L 274.683594 337.335938 C 275.375 337.203125 275.96875 336.773438 276.308594 336.15625 L 277.023438 334.855469 L 277.742188 336.15625 C 278.082031 336.773438 278.679688 337.203125 279.371094 337.335938 L 280.828125 337.617188 Z M 279.816406 338.703125 " fill-opacity="1" fill-rule="nonzero"/></g><g transform="matrix(1, 0, 0, 1, 548, 182)"><g clip-path="url(#8597be4bab)"><g fill="#000000" fill-opacity="1"><g transform="translate(0.580338, 127.505364)"><g><path d="M 55.828125 1.59375 C 46.210938 1.59375 37.546875 -0.476562 29.828125 -4.625 C 22.109375 -8.769531 16.066406 -14.476562 11.703125 -21.75 C 7.335938 -29.03125 5.15625 -37.210938 5.15625 -46.296875 C 5.15625 -55.390625 7.335938 -63.570312 11.703125 -70.84375 C 16.066406 -78.125 22.109375 -83.835938 29.828125 -87.984375 C 37.546875 -92.128906 46.210938 -94.203125 55.828125 -94.203125 C 65.441406 -94.203125 74.082031 -92.128906 81.75 -87.984375 C 89.425781 -83.835938 95.46875 -78.125 99.875 -70.84375 C 104.289062 -63.570312 106.5 -55.390625 106.5 -46.296875 C 106.5 -37.210938 104.289062 -29.03125 99.875 -21.75 C 95.46875 -14.476562 89.425781 -8.769531 81.75 -4.625 C 74.082031 -0.476562 65.441406 1.59375 55.828125 1.59375 Z M 55.828125 -16.671875 C 61.296875 -16.671875 66.234375 -17.925781 70.640625 -20.4375 C 75.054688 -22.945312 78.519531 -26.453125 81.03125 -30.953125 C 83.539062 -35.453125 84.796875 -40.566406 84.796875 -46.296875 C 84.796875 -52.035156 83.539062 -57.148438 81.03125 -61.640625 C 78.519531 -66.140625 75.054688 -69.644531 70.640625 -72.15625 C 66.234375 -74.675781 61.296875 -75.9375 55.828125 -75.9375 C 50.359375 -75.9375 45.414062 -74.675781 41 -72.15625 C 36.59375 -69.644531 33.132812 -66.140625 30.625 -61.640625 C 28.113281 -57.148438 26.859375 -52.035156 26.859375 -46.296875 C 26.859375 -40.566406 28.113281 -35.453125 30.625 -30.953125 C 33.132812 -26.453125 36.59375 -22.945312 41 -20.4375 C 45.414062 -17.925781 50.359375 -16.671875 55.828125 -16.671875 Z M 55.828125 -16.671875 "/></g></g></g><g fill="#000000" fill-opacity="1"><g transform="translate(112.225649, 127.505364)"><g><path d="M 51.0625 -92.609375 C 59.269531 -92.609375 66.394531 -91.238281 72.4375 -88.5 C 78.476562 -85.769531 83.128906 -81.890625 86.390625 -76.859375 C 89.648438 -71.835938 91.28125 -65.882812 91.28125 -59 C 91.28125 -52.207031 89.648438 -46.273438 86.390625 -41.203125 C 83.128906 -36.140625 78.476562 -32.257812 72.4375 -29.5625 C 66.394531 -26.875 59.269531 -25.53125 51.0625 -25.53125 L 32.40625 -25.53125 L 32.40625 0 L 10.984375 0 L 10.984375 -92.609375 Z M 49.875 -43 C 56.3125 -43 61.207031 -44.382812 64.5625 -47.15625 C 67.914062 -49.9375 69.59375 -53.882812 69.59375 -59 C 69.59375 -64.207031 67.914062 -68.195312 64.5625 -70.96875 C 61.207031 -73.75 56.3125 -75.140625 49.875 -75.140625 L 32.40625 -75.140625 L 32.40625 -43 Z M 49.875 -43 "/></g></g></g><g fill="#000000" fill-opacity="1"><g transform="translate(205.218992, 127.505364)"><g><path d="M 30.15625 -75.140625 L 0.53125 -75.140625 L 0.53125 -92.609375 L 81.234375 -92.609375 L 81.234375 -75.140625 L 51.59375 -75.140625 L 51.59375 0 L 30.15625 0 Z M 30.15625 -75.140625 "/></g></g></g><g fill="#000000" fill-opacity="1"><g transform="translate(286.968756, 127.505364)"><g><path d="M 10.984375 -92.609375 L 32.40625 -92.609375 L 32.40625 0 L 10.984375 0 Z M 10.984375 -92.609375 "/></g></g></g><g fill="#000000" fill-opacity="1"><g transform="translate(330.356967, 127.505364)"><g><path d="M 95.25 0 L 95.125 -55.5625 L 67.875 -9.796875 L 58.203125 -9.796875 L 31.09375 -54.375 L 31.09375 0 L 10.984375 0 L 10.984375 -92.609375 L 28.703125 -92.609375 L 63.375 -35.0625 L 97.5 -92.609375 L 115.09375 -92.609375 L 115.359375 0 Z M 95.25 0 "/></g></g></g><g fill="#000000" fill-opacity="1"><g transform="translate(456.685493, 127.505364)"><g><path d="M 71.96875 -19.84375 L 28.96875 -19.84375 L 20.765625 0 L -1.1875 0 L 40.078125 -92.609375 L 61.25 -92.609375 L 102.65625 0 L 80.171875 0 Z M 65.21875 -36.109375 L 50.53125 -71.578125 L 35.859375 -36.109375 Z M 65.21875 -36.109375 "/></g></g></g><g fill="#000000" fill-opacity="1"><g transform="translate(558.012846, 127.505364)"><g/></g></g><g fill="#000000" fill-opacity="1"><g transform="translate(595.448436, 127.505364)"><g><path d="M 55.296875 1.59375 C 45.859375 1.59375 37.320312 -0.457031 29.6875 -4.5625 C 22.0625 -8.664062 16.066406 -14.351562 11.703125 -21.625 C 7.335938 -28.90625 5.15625 -37.128906 5.15625 -46.296875 C 5.15625 -55.472656 7.335938 -63.695312 11.703125 -70.96875 C 16.066406 -78.25 22.0625 -83.941406 29.6875 -88.046875 C 37.320312 -92.148438 45.90625 -94.203125 55.4375 -94.203125 C 63.457031 -94.203125 70.707031 -92.789062 77.1875 -89.96875 C 83.675781 -87.144531 89.125 -83.085938 93.53125 -77.796875 L 79.78125 -65.09375 C 73.507812 -72.320312 65.742188 -75.9375 56.484375 -75.9375 C 50.753906 -75.9375 45.640625 -74.675781 41.140625 -72.15625 C 36.640625 -69.644531 33.132812 -66.140625 30.625 -61.640625 C 28.113281 -57.148438 26.859375 -52.035156 26.859375 -46.296875 C 26.859375 -40.566406 28.113281 -35.453125 30.625 -30.953125 C 33.132812 -26.453125 36.640625 -22.945312 41.140625 -20.4375 C 45.640625 -17.925781 50.753906 -16.671875 56.484375 -16.671875 C 65.742188 -16.671875 73.507812 -20.332031 79.78125 -27.65625 L 93.53125 -14.953125 C 89.125 -9.566406 83.65625 -5.460938 77.125 -2.640625 C 70.601562 0.179688 63.328125 1.59375 55.296875 1.59375 Z M 55.296875 1.59375 "/></g></g></g><g fill="#000000" fill-opacity="1"><g transform="translate(691.881335, 127.505364)"><g><path d="M 100.015625 -92.609375 L 59.9375 0 L 38.765625 0 L -1.1875 -92.609375 L 21.96875 -92.609375 L 50.140625 -26.453125 L 78.71875 -92.609375 Z M 100.015625 -92.609375 "/></g></g></g></g></g><g clip-path="url(#b299798f70)"><g transform="matrix(1, 0, 0, 1, 548, 337)"><g clip-path="url(#6853cedb82)"><g fill="#7c8ba1" fill-opacity="1"><g transform="translate(0.580338, 52.31022)"><g><path d="M 20.078125 -37.390625 C 24.847656 -37.390625 28.585938 -36.25 31.296875 -33.96875 C 34.003906 -31.6875 35.359375 -28.550781 35.359375 -24.5625 C 35.359375 -20.570312 34.003906 -17.445312 31.296875 -15.1875 C 28.585938 -12.925781 24.847656 -11.796875 20.078125 -11.796875 L 10.046875 -11.796875 L 10.046875 0 L 6.09375 0 L 6.09375 -37.390625 Z M 19.96875 -15.28125 C 23.675781 -15.28125 26.507812 -16.085938 28.46875 -17.703125 C 30.425781 -19.328125 31.40625 -21.613281 31.40625 -24.5625 C 31.40625 -27.59375 30.425781 -29.914062 28.46875 -31.53125 C 26.507812 -33.15625 23.675781 -33.96875 19.96875 -33.96875 L 10.046875 -33.96875 L 10.046875 -15.28125 Z M 19.96875 -15.28125 "/></g></g></g><g fill="#7c8ba1" fill-opacity="1"><g transform="translate(38.380799, 52.31022)"><g><path d="M 31.609375 0 L 23.078125 -12.015625 C 22.109375 -11.910156 21.109375 -11.859375 20.078125 -11.859375 L 10.046875 -11.859375 L 10.046875 0 L 6.09375 0 L 6.09375 -37.390625 L 20.078125 -37.390625 C 24.847656 -37.390625 28.585938 -36.25 31.296875 -33.96875 C 34.003906 -31.6875 35.359375 -28.550781 35.359375 -24.5625 C 35.359375 -21.644531 34.617188 -19.179688 33.140625 -17.171875 C 31.660156 -15.160156 29.550781 -13.707031 26.8125 -12.8125 L 35.9375 0 Z M 19.96875 -15.21875 C 23.675781 -15.21875 26.507812 -16.035156 28.46875 -17.671875 C 30.425781 -19.316406 31.40625 -21.613281 31.40625 -24.5625 C 31.40625 -27.59375 30.425781 -29.914062 28.46875 -31.53125 C 26.507812 -33.15625 23.675781 -33.96875 19.96875 -33.96875 L 10.046875 -33.96875 L 10.046875 -15.21875 Z M 19.96875 -15.21875 "/></g></g></g><g fill="#7c8ba1" fill-opacity="1"><g transform="translate(76.982221, 52.31022)"><g><path d="M 32.53125 -3.421875 L 32.53125 0 L 6.09375 0 L 6.09375 -37.390625 L 31.71875 -37.390625 L 31.71875 -33.96875 L 10.046875 -33.96875 L 10.046875 -20.671875 L 29.375 -20.671875 L 29.375 -17.296875 L 10.046875 -17.296875 L 10.046875 -3.421875 Z M 32.53125 -3.421875 "/></g></g></g><g fill="#7c8ba1" fill-opacity="1"><g transform="translate(112.700545, 52.31022)"><g><path d="M 44.921875 -37.390625 L 44.921875 0 L 41.125 0 L 41.125 -29.90625 L 26.4375 -4.75 L 24.5625 -4.75 L 9.875 -29.75 L 9.875 0 L 6.09375 0 L 6.09375 -37.390625 L 9.34375 -37.390625 L 25.578125 -9.671875 L 41.65625 -37.390625 Z M 44.921875 -37.390625 "/></g></g></g><g fill="#7c8ba1" fill-opacity="1"><g transform="translate(163.688581, 52.31022)"><g><path d="M 6.09375 -37.390625 L 10.046875 -37.390625 L 10.046875 0 L 6.09375 0 Z M 6.09375 -37.390625 "/></g></g></g><g fill="#7c8ba1" fill-opacity="1"><g transform="translate(179.81255, 52.31022)"><g><path d="M 21.15625 0.328125 C 16.3125 0.328125 12.535156 -1.0625 9.828125 -3.84375 C 7.117188 -6.625 5.765625 -10.664062 5.765625 -15.96875 L 5.765625 -37.390625 L 9.71875 -37.390625 L 9.71875 -16.125 C 9.71875 -11.78125 10.695312 -8.539062 12.65625 -6.40625 C 14.613281 -4.269531 17.445312 -3.203125 21.15625 -3.203125 C 24.882812 -3.203125 27.726562 -4.269531 29.6875 -6.40625 C 31.644531 -8.539062 32.625 -11.78125 32.625 -16.125 L 32.625 -37.390625 L 36.46875 -37.390625 L 36.46875 -15.96875 C 36.46875 -10.664062 35.125 -6.625 32.4375 -3.84375 C 29.75 -1.0625 25.988281 0.328125 21.15625 0.328125 Z M 21.15625 0.328125 "/></g></g></g><g fill="#7c8ba1" fill-opacity="1"><g transform="translate(222.097928, 52.31022)"><g><path d="M 44.921875 -37.390625 L 44.921875 0 L 41.125 0 L 41.125 -29.90625 L 26.4375 -4.75 L 24.5625 -4.75 L 9.875 -29.75 L 9.875 0 L 6.09375 0 L 6.09375 -37.390625 L 9.34375 -37.390625 L 25.578125 -9.671875 L 41.65625 -37.390625 Z M 44.921875 -37.390625 "/></g></g></g><g fill="#7c8ba1" fill-opacity="1"><g transform="translate(273.085952, 52.31022)"><g/></g></g><g fill="#7c8ba1" fill-opacity="1"><g transform="translate(287.074293, 52.31022)"><g><path d="M 13.34375 -33.96875 L 0.21875 -33.96875 L 0.21875 -37.390625 L 30.4375 -37.390625 L 30.4375 -33.96875 L 17.296875 -33.96875 L 17.296875 0 L 13.34375 0 Z M 13.34375 -33.96875 "/></g></g></g><g fill="#7c8ba1" fill-opacity="1"><g transform="translate(317.720493, 52.31022)"><g><path d="M 32.53125 -3.421875 L 32.53125 0 L 6.09375 0 L 6.09375 -37.390625 L 31.71875 -37.390625 L 31.71875 -33.96875 L 10.046875 -33.96875 L 10.046875 -20.671875 L 29.375 -20.671875 L 29.375 -17.296875 L 10.046875 -17.296875 L 10.046875 -3.421875 Z M 32.53125 -3.421875 "/></g></g></g><g fill="#7c8ba1" fill-opacity="1"><g transform="translate(353.225236, 52.31022)"><g><path d="M 22.328125 0.328125 C 18.617188 0.328125 15.273438 -0.488281 12.296875 -2.125 C 9.328125 -3.769531 7 -6.039062 5.3125 -8.9375 C 3.625 -11.84375 2.78125 -15.09375 2.78125 -18.6875 C 2.78125 -22.289062 3.625 -25.539062 5.3125 -28.4375 C 7 -31.34375 9.335938 -33.613281 12.328125 -35.25 C 15.328125 -36.882812 18.675781 -37.703125 22.375 -37.703125 C 25.15625 -37.703125 27.71875 -37.238281 30.0625 -36.3125 C 32.414062 -35.382812 34.410156 -34.03125 36.046875 -32.25 L 33.546875 -29.75 C 30.617188 -32.707031 26.929688 -34.1875 22.484375 -34.1875 C 19.523438 -34.1875 16.832031 -33.507812 14.40625 -32.15625 C 11.988281 -30.800781 10.09375 -28.945312 8.71875 -26.59375 C 7.351562 -24.25 6.671875 -21.613281 6.671875 -18.6875 C 6.671875 -15.769531 7.351562 -13.132812 8.71875 -10.78125 C 10.09375 -8.4375 11.988281 -6.585938 14.40625 -5.234375 C 16.832031 -3.878906 19.523438 -3.203125 22.484375 -3.203125 C 26.972656 -3.203125 30.660156 -4.695312 33.546875 -7.6875 L 36.046875 -5.1875 C 34.410156 -3.40625 32.40625 -2.039062 30.03125 -1.09375 C 27.664062 -0.144531 25.097656 0.328125 22.328125 0.328125 Z M 22.328125 0.328125 "/></g></g></g><g fill="#7c8ba1" fill-opacity="1"><g transform="translate(391.613065, 52.31022)"><g><path d="M 37.328125 -37.390625 L 37.328125 0 L 33.4375 0 L 33.4375 -17.25 L 10.046875 -17.25 L 10.046875 0 L 6.09375 0 L 6.09375 -37.390625 L 10.046875 -37.390625 L 10.046875 -20.71875 L 33.4375 -20.71875 L 33.4375 -37.390625 Z M 37.328125 -37.390625 "/></g></g></g><g fill="#7c8ba1" fill-opacity="1"><g transform="translate(435.019632, 52.31022)"><g/></g></g><g fill="#7c8ba1" fill-opacity="1"><g transform="translate(449.007973, 52.31022)"><g><path d="M 31.609375 0 L 23.078125 -12.015625 C 22.109375 -11.910156 21.109375 -11.859375 20.078125 -11.859375 L 10.046875 -11.859375 L 10.046875 0 L 6.09375 0 L 6.09375 -37.390625 L 20.078125 -37.390625 C 24.847656 -37.390625 28.585938 -36.25 31.296875 -33.96875 C 34.003906 -31.6875 35.359375 -28.550781 35.359375 -24.5625 C 35.359375 -21.644531 34.617188 -19.179688 33.140625 -17.171875 C 31.660156 -15.160156 29.550781 -13.707031 26.8125 -12.8125 L 35.9375 0 Z M 19.96875 -15.21875 C 23.675781 -15.21875 26.507812 -16.035156 28.46875 -17.671875 C 30.425781 -19.316406 31.40625 -21.613281 31.40625 -24.5625 C 31.40625 -27.59375 30.425781 -29.914062 28.46875 -31.53125 C 26.507812 -33.15625 23.675781 -33.96875 19.96875 -33.96875 L 10.046875 -33.96875 L 10.046875 -15.21875 Z M 19.96875 -15.21875 "/></g></g></g><g fill="#7c8ba1" fill-opacity="1"><g transform="translate(487.609395, 52.31022)"><g><path d="M 32.53125 -3.421875 L 32.53125 0 L 6.09375 0 L 6.09375 -37.390625 L 31.71875 -37.390625 L 31.71875 -33.96875 L 10.046875 -33.96875 L 10.046875 -20.671875 L 29.375 -20.671875 L 29.375 -17.296875 L 10.046875 -17.296875 L 10.046875 -3.421875 Z M 32.53125 -3.421875 "/></g></g></g><g fill="#7c8ba1" fill-opacity="1"><g transform="translate(523.114137, 52.31022)"><g><path d="M 22.328125 0.328125 C 18.617188 0.328125 15.273438 -0.488281 12.296875 -2.125 C 9.328125 -3.769531 7 -6.039062 5.3125 -8.9375 C 3.625 -11.84375 2.78125 -15.09375 2.78125 -18.6875 C 2.78125 -22.289062 3.625 -25.539062 5.3125 -28.4375 C 7 -31.34375 9.335938 -33.613281 12.328125 -35.25 C 15.328125 -36.882812 18.675781 -37.703125 22.375 -37.703125 C 25.15625 -37.703125 27.71875 -37.238281 30.0625 -36.3125 C 32.414062 -35.382812 34.410156 -34.03125 36.046875 -32.25 L 33.546875 -29.75 C 30.617188 -32.707031 26.929688 -34.1875 22.484375 -34.1875 C 19.523438 -34.1875 16.832031 -33.507812 14.40625 -32.15625 C 11.988281 -30.800781 10.09375 -28.945312 8.71875 -26.59375 C 7.351562 -24.25 6.671875 -21.613281 6.671875 -18.6875 C 6.671875 -15.769531 7.351562 -13.132812 8.71875 -10.78125 C 10.09375 -8.4375 11.988281 -6.585938 14.40625 -5.234375 C 16.832031 -3.878906 19.523438 -3.203125 22.484375 -3.203125 C 26.972656 -3.203125 30.660156 -4.695312 33.546875 -7.6875 L 36.046875 -5.1875 C 34.410156 -3.40625 32.40625 -2.039062 30.03125 -1.09375 C 27.664062 -0.144531 25.097656 0.328125 22.328125 0.328125 Z M 22.328125 0.328125 "/></g></g></g><g fill="#7c8ba1" fill-opacity="1"><g transform="translate(561.501967, 52.31022)"><g><path d="M 31.609375 0 L 23.078125 -12.015625 C 22.109375 -11.910156 21.109375 -11.859375 20.078125 -11.859375 L 10.046875 -11.859375 L 10.046875 0 L 6.09375 0 L 6.09375 -37.390625 L 20.078125 -37.390625 C 24.847656 -37.390625 28.585938 -36.25 31.296875 -33.96875 C 34.003906 -31.6875 35.359375 -28.550781 35.359375 -24.5625 C 35.359375 -21.644531 34.617188 -19.179688 33.140625 -17.171875 C 31.660156 -15.160156 29.550781 -13.707031 26.8125 -12.8125 L 35.9375 0 Z M 19.96875 -15.21875 C 23.675781 -15.21875 26.507812 -16.035156 28.46875 -17.671875 C 30.425781 -19.316406 31.40625 -21.613281 31.40625 -24.5625 C 31.40625 -27.59375 30.425781 -29.914062 28.46875 -31.53125 C 26.507812 -33.15625 23.675781 -33.96875 19.96875 -33.96875 L 10.046875 -33.96875 L 10.046875 -15.21875 Z M 19.96875 -15.21875 "/></g></g></g><g fill="#7c8ba1" fill-opacity="1"><g transform="translate(600.103389, 52.31022)"><g><path d="M 21.15625 0.328125 C 16.3125 0.328125 12.535156 -1.0625 9.828125 -3.84375 C 7.117188 -6.625 5.765625 -10.664062 5.765625 -15.96875 L 5.765625 -37.390625 L 9.71875 -37.390625 L 9.71875 -16.125 C 9.71875 -11.78125 10.695312 -8.539062 12.65625 -6.40625 C 14.613281 -4.269531 17.445312 -3.203125 21.15625 -3.203125 C 24.882812 -3.203125 27.726562 -4.269531 29.6875 -6.40625 C 31.644531 -8.539062 32.625 -11.78125 32.625 -16.125 L 32.625 -37.390625 L 36.46875 -37.390625 L 36.46875 -15.96875 C 36.46875 -10.664062 35.125 -6.625 32.4375 -3.84375 C 29.75 -1.0625 25.988281 0.328125 21.15625 0.328125 Z M 21.15625 0.328125 "/></g></g></g><g fill="#7c8ba1" fill-opacity="1"><g transform="translate(642.388755, 52.31022)"><g><path d="M 6.09375 -37.390625 L 10.046875 -37.390625 L 10.046875 0 L 6.09375 0 Z M 6.09375 -37.390625 "/></g></g></g><g fill="#7c8ba1" fill-opacity="1"><g transform="translate(658.512746, 52.31022)"><g><path d="M 13.34375 -33.96875 L 0.21875 -33.96875 L 0.21875 -37.390625 L 30.4375 -37.390625 L 30.4375 -33.96875 L 17.296875 -33.96875 L 17.296875 0 L 13.34375 0 Z M 13.34375 -33.96875 "/></g></g></g><g fill="#7c8ba1" fill-opacity="1"><g transform="translate(689.158923, 52.31022)"><g><path d="M 32.53125 -3.421875 L 32.53125 0 L 6.09375 0 L 6.09375 -37.390625 L 31.71875 -37.390625 L 31.71875 -33.96875 L 10.046875 -33.96875 L 10.046875 -20.671875 L 29.375 -20.671875 L 29.375 -17.296875 L 10.046875 -17.296875 L 10.046875 -3.421875 Z M 32.53125 -3.421875 "/></g></g></g><g fill="#7c8ba1" fill-opacity="1"><g transform="translate(724.877258, 52.31022)"><g><path d="M 31.609375 0 L 23.078125 -12.015625 C 22.109375 -11.910156 21.109375 -11.859375 20.078125 -11.859375 L 10.046875 -11.859375 L 10.046875 0 L 6.09375 0 L 6.09375 -37.390625 L 20.078125 -37.390625 C 24.847656 -37.390625 28.585938 -36.25 31.296875 -33.96875 C 34.003906 -31.6875 35.359375 -28.550781 35.359375 -24.5625 C 35.359375 -21.644531 34.617188 -19.179688 33.140625 -17.171875 C 31.660156 -15.160156 29.550781 -13.707031 26.8125 -12.8125 L 35.9375 0 Z M 19.96875 -15.21875 C 23.675781 -15.21875 26.507812 -16.035156 28.46875 -17.671875 C 30.425781 -19.316406 31.40625 -21.613281 31.40625 -24.5625 C 31.40625 -27.59375 30.425781 -29.914062 28.46875 -31.53125 C 26.507812 -33.15625 23.675781 -33.96875 19.96875 -33.96875 L 10.046875 -33.96875 L 10.046875 -15.21875 Z M 19.96875 -15.21875 "/></g></g></g><g fill="#7c8ba1" fill-opacity="1"><g transform="translate(763.47868, 52.31022)"><g/></g></g><g fill="#7c8ba1" fill-opacity="1"><g transform="translate(777.467021, 52.31022)"><g><path d="M 16.390625 0.328125 C 13.617188 0.328125 10.957031 -0.113281 8.40625 -1 C 5.863281 -1.894531 3.898438 -3.078125 2.515625 -4.546875 L 4.0625 -7.578125 C 5.414062 -6.222656 7.210938 -5.128906 9.453125 -4.296875 C 11.691406 -3.460938 14.003906 -3.046875 16.390625 -3.046875 C 19.742188 -3.046875 22.253906 -3.660156 23.921875 -4.890625 C 25.597656 -6.117188 26.4375 -7.710938 26.4375 -9.671875 C 26.4375 -11.160156 25.984375 -12.347656 25.078125 -13.234375 C 24.171875 -14.128906 23.054688 -14.816406 21.734375 -15.296875 C 20.421875 -15.773438 18.585938 -16.300781 16.234375 -16.875 C 13.421875 -17.582031 11.175781 -18.265625 9.5 -18.921875 C 7.832031 -19.585938 6.398438 -20.597656 5.203125 -21.953125 C 4.015625 -23.304688 3.421875 -25.140625 3.421875 -27.453125 C 3.421875 -29.335938 3.914062 -31.050781 4.90625 -32.59375 C 5.90625 -34.144531 7.4375 -35.382812 9.5 -36.3125 C 11.570312 -37.238281 14.140625 -37.703125 17.203125 -37.703125 C 19.335938 -37.703125 21.425781 -37.40625 23.46875 -36.8125 C 25.519531 -36.226562 27.289062 -35.421875 28.78125 -34.390625 L 27.453125 -31.25 C 25.878906 -32.28125 24.203125 -33.050781 22.421875 -33.5625 C 20.648438 -34.082031 18.910156 -34.34375 17.203125 -34.34375 C 13.921875 -34.34375 11.453125 -33.707031 9.796875 -32.4375 C 8.140625 -31.175781 7.3125 -29.550781 7.3125 -27.5625 C 7.3125 -26.0625 7.765625 -24.859375 8.671875 -23.953125 C 9.585938 -23.046875 10.726562 -22.351562 12.09375 -21.875 C 13.46875 -21.394531 15.3125 -20.867188 17.625 -20.296875 C 20.363281 -19.617188 22.578125 -18.945312 24.265625 -18.28125 C 25.960938 -17.625 27.394531 -16.628906 28.5625 -15.296875 C 29.738281 -13.960938 30.328125 -12.15625 30.328125 -9.875 C 30.328125 -7.988281 29.820312 -6.269531 28.8125 -4.71875 C 27.800781 -3.175781 26.242188 -1.945312 24.140625 -1.03125 C 22.035156 -0.125 19.453125 0.328125 16.390625 0.328125 Z M 16.390625 0.328125 "/></g></g></g><g fill="#7c8ba1" fill-opacity="1"><g transform="translate(810.302223, 52.31022)"><g><path d="M 21.15625 0.328125 C 16.3125 0.328125 12.535156 -1.0625 9.828125 -3.84375 C 7.117188 -6.625 5.765625 -10.664062 5.765625 -15.96875 L 5.765625 -37.390625 L 9.71875 -37.390625 L 9.71875 -16.125 C 9.71875 -11.78125 10.695312 -8.539062 12.65625 -6.40625 C 14.613281 -4.269531 17.445312 -3.203125 21.15625 -3.203125 C 24.882812 -3.203125 27.726562 -4.269531 29.6875 -6.40625 C 31.644531 -8.539062 32.625 -11.78125 32.625 -16.125 L 32.625 -37.390625 L 36.46875 -37.390625 L 36.46875 -15.96875 C 36.46875 -10.664062 35.125 -6.625 32.4375 -3.84375 C 29.75 -1.0625 25.988281 0.328125 21.15625 0.328125 Z M 21.15625 0.328125 "/></g></g></g><g fill="#7c8ba1" fill-opacity="1"><g transform="translate(852.587589, 52.31022)"><g><path d="M 6.09375 -37.390625 L 10.046875 -37.390625 L 10.046875 0 L 6.09375 0 Z M 6.09375 -37.390625 "/></g></g></g><g fill="#7c8ba1" fill-opacity="1"><g transform="translate(868.71158, 52.31022)"><g><path d="M 13.34375 -33.96875 L 0.21875 -33.96875 L 0.21875 -37.390625 L 30.4375 -37.390625 L 30.4375 -33.96875 L 17.296875 -33.96875 L 17.296875 0 L 13.34375 0 Z M 13.34375 -33.96875 "/></g></g></g><g fill="#7c8ba1" fill-opacity="1"><g transform="translate(899.357848, 52.31022)"><g><path d="M 32.53125 -3.421875 L 32.53125 0 L 6.09375 0 L 6.09375 -37.390625 L 31.71875 -37.390625 L 31.71875 -33.96875 L 10.046875 -33.96875 L 10.046875 -20.671875 L 29.375 -20.671875 L 29.375 -17.296875 L 10.046875 -17.296875 L 10.046875 -3.421875 Z M 32.53125 -3.421875 "/></g></g></g></g></g></g></g></g></svg>